<svg width="40" height="32" viewBox="0 0 40 32" fill="none" xmlns="http://www.w3.org/2000/svg">
<path d="M10.4483 21.0929C10.1247 21.0929 9.86234 21.3159 9.86234 21.591V26.3083C9.86234 26.5511 10.0684 26.7584 10.3499 26.7993C10.3919 26.8054 10.4279 26.8106 11.0344 26.8106C11.3303 26.8106 11.7621 26.8094 12.3966 26.8064C12.7201 26.8049 12.981 26.5807 12.9792 26.3056C12.9774 26.0314 12.7155 25.8103 12.3934 25.8103C12.3923 25.8103 12.3912 25.8103 12.3901 25.8103C11.9169 25.8126 11.408 25.8141 11.0343 25.8143V21.591C11.0342 21.3159 10.7719 21.0929 10.4483 21.0929Z" fill="black"/>
<path d="M30.3752 22.1106C30.6988 22.1106 30.9612 21.8877 30.9612 21.6126C30.9612 21.3375 30.6988 21.1145 30.3752 21.1145H28.0562C27.7326 21.1145 27.4702 21.3375 27.4702 21.6126V26.2907C27.4702 26.5658 27.7326 26.7887 28.0562 26.7887H30.3752C30.6988 26.7887 30.9612 26.5658 30.9612 26.2907C30.9612 26.0156 30.6988 25.7927 30.3752 25.7927H28.6421V24.4497H30.2042C30.5278 24.4497 30.7902 24.2267 30.7902 23.9516C30.7902 23.6765 30.5278 23.4536 30.2042 23.4536H28.6421V22.1106H30.3752V22.1106Z" fill="black"/>
<path d="M31.922 26.168C31.922 26.2031 31.9263 26.2374 31.9345 26.2705C31.9427 26.3929 32.003 26.509 32.106 26.5959C32.2158 26.6885 32.3642 26.7405 32.5188 26.7405H32.521C32.5671 26.7403 33.655 26.7367 34.0894 26.7304C35.6584 26.707 36.7971 25.5384 36.7971 23.9516C36.7971 22.2835 35.6869 21.1627 34.0345 21.1627H32.5079C32.3523 21.1627 32.2031 21.2153 32.0932 21.3089C31.9833 21.4025 31.9216 21.5294 31.922 21.6616V21.6654V21.6655V26.168ZM34.0345 22.1588C35.2074 22.1588 35.6253 23.0849 35.6253 23.9516C35.6253 24.7991 35.1383 25.7185 34.0691 25.7344C33.8485 25.7376 33.4438 25.7402 33.1028 25.7419C33.1007 25.2007 33.0978 24.3588 33.0978 23.9465C33.0978 23.6026 33.0962 22.7215 33.095 22.1588H34.0345Z" fill="black"/>
<path d="M6.56602 22.089C7.00524 22.089 7.42875 22.1989 7.79078 22.4068C8.05899 22.5606 8.42313 22.5008 8.6043 22.2728C8.78547 22.0449 8.71493 21.7353 8.44672 21.5813C7.89024 21.2619 7.23992 21.0929 6.56594 21.0929C4.71149 21.0929 3.20274 22.3754 3.20274 23.9516C3.20274 25.5279 4.71149 26.8103 6.56594 26.8103C7.30399 26.8103 7.96586 26.6046 8.47985 26.2155C8.58047 26.1393 8.67625 26.0554 8.76446 25.966C8.9725 25.7552 8.94008 25.4411 8.69219 25.2643C8.4443 25.0875 8.07477 25.115 7.86672 25.3258C7.81485 25.3783 7.75891 25.4274 7.70047 25.4716C7.40024 25.699 7.01852 25.8142 6.56602 25.8142C5.35774 25.8142 4.37469 24.9786 4.37469 23.9516C4.37477 22.9245 5.35774 22.089 6.56602 22.089Z" fill="black"/>
<path d="M24.2522 25.8142C23.67 25.8142 23.1088 25.6138 22.7508 25.278C22.5335 25.0742 22.1629 25.0587 21.9231 25.2434C21.6834 25.4281 21.6651 25.7431 21.8824 25.9469C22.4588 26.4876 23.3448 26.8104 24.2522 26.8104C25.3521 26.8104 26.311 26.194 26.4827 25.3767C26.6133 24.7551 26.276 23.9414 24.9372 23.5215C24.2376 23.3022 23.5875 23.063 23.4067 22.9956C23.262 22.9018 23.1923 22.7546 23.2191 22.5954C23.2362 22.4946 23.3207 22.2486 23.737 22.1421C24.5776 21.9267 25.3459 22.446 25.3655 22.4594C25.6131 22.6344 25.981 22.6067 26.1885 22.3969C26.3967 22.1863 26.3647 21.8721 26.117 21.6952C26.0664 21.659 24.8609 20.8142 23.399 21.1883C22.673 21.3742 22.1596 21.8592 22.0591 22.4539C21.9652 23.0098 22.2486 23.5445 22.7985 23.8492C22.8245 23.8636 22.8516 23.8762 22.8798 23.8868C22.9118 23.899 23.6735 24.1871 24.5317 24.4561C25.1005 24.6345 25.3911 24.9062 25.3291 25.2016C25.2659 25.5027 24.8458 25.8142 24.2522 25.8142Z" fill="black"/>
<path d="M20.7698 23.9516C20.7698 22.3754 19.2612 21.0929 17.4067 21.0929C15.5523 21.0929 14.0436 22.3754 14.0436 23.9516C14.0436 25.5279 15.5523 26.8103 17.4067 26.8103C19.2612 26.8103 20.7698 25.5279 20.7698 23.9516ZM15.2155 23.9516C15.2155 22.9245 16.1984 22.089 17.4067 22.089C18.615 22.089 19.598 22.9245 19.598 23.9516C19.598 24.9786 18.615 25.8142 17.4067 25.8142C16.1984 25.8142 15.2155 24.9786 15.2155 23.9516Z" fill="black"/>
<path d="M37.4609 16.0712H33.2323C33.2184 16.0509 33.2032 16.0311 33.1855 16.0121L22.2613 4.30617C22.6971 3.86783 22.9605 3.30198 22.9605 2.68447C22.9605 1.29684 21.6324 0.167938 20 0.167938C18.3675 0.167938 17.0395 1.29684 17.0395 2.68447C17.0395 3.30198 17.3029 3.86783 17.7387 4.30617L6.7593 16.0712H2.53906C1.13906 16.0712 0 17.0394 0 18.2294V25.0827C0 25.3578 0.262344 25.5807 0.585938 25.5807C0.909531 25.5807 1.17188 25.3578 1.17188 25.0827V19.7976H38.8281V28.1055H30.9248C30.6012 28.1055 30.3388 28.3284 30.3388 28.6035C30.3388 28.8787 30.6012 29.1016 30.9248 29.1016H38.8281V29.6737C38.8281 30.3144 38.2148 30.8358 37.4609 30.8358H2.53906C1.78523 30.8358 1.17188 30.3144 1.17188 29.6737V29.1016H28.3712C28.6948 29.1016 28.9571 28.8787 28.9571 28.6035C28.9571 28.3284 28.6948 28.1055 28.3712 28.1055H1.17188V27.2532C1.17188 26.9781 0.909531 26.7551 0.585938 26.7551C0.262344 26.7551 0 26.9781 0 27.2532V29.6737C0 30.8637 1.13906 31.8319 2.53906 31.8319H37.4609C38.8609 31.8319 40 30.8637 40 29.6737V18.2294C40 17.0394 38.8609 16.0712 37.4609 16.0712ZM20 5.20093C20.4836 5.20093 20.9401 5.10126 21.3436 4.92568L25.7688 9.66761H14.2311L18.6563 4.92568C19.0599 5.10119 19.5164 5.20093 20 5.20093ZM20 1.1641C20.9862 1.1641 21.7887 1.84616 21.7887 2.68454C21.7887 3.52285 20.9862 4.20484 20 4.20484C19.0137 4.20484 18.2113 3.52278 18.2113 2.68454C18.2113 1.84609 19.0137 1.1641 20 1.1641ZM1.17188 18.8016V18.2295C1.17188 17.5887 1.78523 17.0674 2.53906 17.0674H12.115C12.4386 17.0674 12.7009 16.8445 12.7009 16.5693C12.7009 16.2942 12.4386 16.0713 12.115 16.0713H8.25516L13.3016 10.6638H26.6984L31.7448 16.0713H14.6686C14.345 16.0713 14.0827 16.2942 14.0827 16.5693C14.0827 16.8445 14.345 17.0674 14.6686 17.0674H37.4609C38.2148 17.0674 38.8281 17.5887 38.8281 18.2295V18.8016H1.17188Z" fill="black"/>
</svg>
