<svg width="14" height="16" viewBox="0 0 14 16" fill="none" xmlns="http://www.w3.org/2000/svg">
<path d="M6.07687 -0.019165C4.87194 -0.019165 3.90394 0.982066 3.90394 2.19253V2.46145H1.46148C1.12241 2.46145 0.846098 2.73776 0.846098 3.07684V3.69222H0.230713V4.92299H1.46148V14.1538C1.46148 15.1661 2.29533 15.9999 3.30764 15.9999H10.6923C11.7046 15.9999 12.5384 15.1661 12.5384 14.1538V4.92299H13.7692V3.69222H13.1538V3.07684C13.1538 2.73776 12.8775 2.46145 12.5384 2.46145H10.0959V2.19191C10.0959 0.982066 9.12794 -0.019165 7.92302 -0.019165H6.07687ZM6.07687 1.24976H7.92302C8.41779 1.24976 8.82702 1.65345 8.82702 2.19191V2.46145H5.17225V2.19191C5.17225 1.65345 5.58148 1.25037 6.07625 1.25037L6.07687 1.24976ZM2.69225 4.92299H5.8461C5.92241 4.93099 5.9981 4.94207 6.07687 4.94207H7.92302C8.00179 4.94207 8.07687 4.93099 8.15379 4.92299H11.3076V14.1538C11.3076 14.5002 11.0387 14.7691 10.6923 14.7691H3.30764C2.96117 14.7691 2.69225 14.5002 2.69225 14.1538V4.92299ZM3.92302 6.15376V13.5384H5.15379V6.15376H3.92302ZM6.38456 6.15376V13.5384H7.61533V6.15376H6.38456ZM8.8461 6.15376V13.5384H10.0769V6.15376H8.8461Z"/>
</svg>
