<svg width="16" height="16" viewBox="0 0 16 16" fill="none" xmlns="http://www.w3.org/2000/svg">
<path fill-rule="evenodd" clip-rule="evenodd" d="M9.90474 5.75219L6.90174 8.76219L5.74674 7.60719C5.57567 7.40742 5.30706 7.32041 5.05135 7.38192C4.79564 7.44343 4.59598 7.64308 4.53447 7.89879C4.47296 8.15451 4.55998 8.42312 4.75974 8.59419L6.40474 10.2462C6.53684 10.3772 6.71568 10.4503 6.90174 10.4492C7.08538 10.4484 7.26136 10.3755 7.39174 10.2462L10.8917 6.74619C11.0243 6.61475 11.0988 6.43583 11.0988 6.24919C11.0988 6.06254 11.0243 5.88362 10.8917 5.75219C10.6187 5.48078 10.1778 5.48078 9.90474 5.75219ZM8 1C4.13401 1 1 4.13401 1 8C1 11.866 4.13401 15 8 15C11.866 15 15 11.866 15 8C15 6.14348 14.2625 4.36301 12.9497 3.05025C11.637 1.7375 9.85651 1 8 1ZM8.00068 13.6007C4.90789 13.6007 2.40068 11.0935 2.40068 8.00068C2.40068 4.90789 4.90789 2.40068 8.00068 2.40068C11.0935 2.40068 13.6007 4.90789 13.6007 8.00068C13.6007 9.4859 13.0107 10.9103 11.9605 11.9605C10.9103 13.0107 9.4859 13.6007 8.00068 13.6007Z"/>
</svg>
