<svg width="12" height="12" viewBox="0 0 12 12" fill="none" xmlns="http://www.w3.org/2000/svg">
<path d="M11.9816 10.6719C11.9358 10.3485 10.7818 2.90374 10.6573 1.98452C10.595 1.52114 10.197 1.16669 9.7212 1.16669H8.58462V0.625191C8.58462 0.372816 8.37928 0.16748 8.12691 0.16748H8.03302C7.78062 0.16748 7.5753 0.372816 7.5753 0.625191V1.16667H5.67401V0.625191C5.67401 0.372816 5.46867 0.16748 5.2163 0.16748H5.12241C4.87001 0.16748 4.6647 0.372816 4.6647 0.625191V1.16667H2.7634V0.625191C2.7634 0.372816 2.55806 0.16748 2.30569 0.16748H2.2118C1.9594 0.16748 1.75409 0.372816 1.75409 0.625191V1.16667H0.944813C0.423844 1.16667 0 1.59051 0 2.11146C0 2.37972 0 10.7547 0 10.8878C0 11.4088 0.423844 11.8326 0.944813 11.8326C1.10114 11.8326 10.8846 11.8326 11.0678 11.8326C11.4615 11.8326 11.8178 11.5846 11.9538 11.2166C11.9723 11.1676 12.0289 10.9839 11.9816 10.6719ZM7.92741 0.625191C7.92741 0.566949 7.97477 0.519559 8.03304 0.519559H8.12693C8.18517 0.519559 8.23256 0.566949 8.23256 0.625191V2.19004C8.23256 2.24829 8.18517 2.29568 8.12693 2.29568H8.03304C7.97477 2.29568 7.92741 2.24829 7.92741 2.19004V0.625191ZM7.68143 2.48275C7.68954 2.49248 7.69814 2.50174 7.707 2.51074C7.70845 2.51221 7.70988 2.51371 7.71136 2.51517C7.72038 2.52412 7.7298 2.53263 7.73955 2.54079C7.74134 2.54228 7.74312 2.54374 7.74492 2.54521C7.75481 2.55328 7.76501 2.56094 7.77558 2.56814C7.77719 2.56924 7.77886 2.57029 7.7805 2.57137C7.79159 2.57871 7.80291 2.58574 7.81463 2.59211C7.81523 2.59244 7.81587 2.59272 7.81648 2.59307C7.82815 2.59936 7.84013 2.60512 7.85238 2.61039C7.8537 2.61096 7.85496 2.61157 7.85627 2.61213C7.86841 2.61721 7.88086 2.62171 7.89347 2.62577C7.89558 2.62645 7.89766 2.62715 7.8998 2.62778C7.91224 2.63158 7.92492 2.63482 7.93779 2.63758C7.94006 2.63807 7.94234 2.63852 7.94463 2.63896C7.95773 2.64154 7.971 2.64363 7.98448 2.64506C7.98626 2.64525 7.98804 2.64534 7.98982 2.64553C8.00407 2.64686 8.01844 2.64771 8.03302 2.64771H8.12691C8.14148 2.64771 8.15585 2.64686 8.1701 2.64553C8.17188 2.64536 8.17369 2.64527 8.17545 2.64506C8.18892 2.64363 8.20219 2.64154 8.21529 2.63896C8.21759 2.63852 8.21986 2.63807 8.22213 2.63758C8.23502 2.63484 8.2477 2.63161 8.26013 2.62778C8.26223 2.62713 8.26434 2.62643 8.26645 2.62577C8.27909 2.62171 8.29153 2.61721 8.30365 2.61213C8.30496 2.61157 8.30623 2.61096 8.30754 2.61039C8.3198 2.60512 8.3318 2.59936 8.34344 2.59307C8.34405 2.59275 8.34469 2.59246 8.3453 2.59211C8.35704 2.58574 8.36834 2.57871 8.37942 2.57137C8.38106 2.57029 8.38273 2.56924 8.38434 2.56814C8.39491 2.56094 8.40509 2.55325 8.415 2.54521C8.41681 2.54374 8.41859 2.54228 8.42037 2.54079C8.43012 2.53261 8.43952 2.52412 8.44856 2.51517C8.45004 2.51371 8.45147 2.51221 8.45292 2.51074C8.46173 2.50174 8.47034 2.49248 8.47845 2.48275C8.47875 2.48911 8.47891 2.49546 8.47891 2.50183C8.47891 2.72186 8.29992 2.90086 8.07987 2.90086C7.85984 2.90086 7.68084 2.72186 7.68084 2.50183C7.68096 2.49546 7.6811 2.48911 7.68143 2.48275ZM5.01682 0.625191C5.01682 0.566949 5.06419 0.519559 5.12245 0.519559H5.21634C5.27459 0.519559 5.32198 0.566949 5.32198 0.625191V2.19004C5.32198 2.24829 5.27459 2.29568 5.21634 2.29568H5.12245C5.06419 2.29568 5.01682 2.24829 5.01682 2.19004V0.625191ZM4.7708 2.48275C4.77891 2.49248 4.78751 2.50174 4.79637 2.51074C4.79782 2.51221 4.79925 2.51371 4.80073 2.51517C4.80975 2.52412 4.81917 2.53263 4.82892 2.54079C4.8307 2.54228 4.83248 2.54374 4.83429 2.54521C4.84418 2.55328 4.85437 2.56094 4.86495 2.56814C4.86656 2.56924 4.86823 2.57029 4.86987 2.57137C4.88095 2.57871 4.89227 2.58574 4.90399 2.59211C4.9046 2.59244 4.90523 2.59272 4.90584 2.59307C4.91752 2.59936 4.92952 2.60512 4.94175 2.61039C4.94306 2.61096 4.94433 2.61157 4.94564 2.61213C4.95778 2.61721 4.97023 2.62171 4.98284 2.62577C4.98495 2.62645 4.98703 2.62715 4.98916 2.62778C5.00161 2.63158 5.01429 2.63482 5.02716 2.63758C5.02943 2.63807 5.0317 2.63852 5.034 2.63896C5.0471 2.64154 5.06037 2.64363 5.07384 2.64506C5.07562 2.64525 5.07741 2.64534 5.07921 2.64553C5.09344 2.64686 5.10783 2.64771 5.12241 2.64771H5.2163C5.23088 2.64771 5.24524 2.64686 5.25949 2.64553C5.26127 2.64536 5.26308 2.64527 5.26486 2.64506C5.27834 2.64363 5.2916 2.64154 5.3047 2.63896C5.307 2.63852 5.30927 2.63807 5.31155 2.63758C5.32444 2.63484 5.33712 2.63161 5.34954 2.62778C5.35165 2.62713 5.35376 2.62643 5.35587 2.62577C5.3685 2.62171 5.38095 2.61721 5.39306 2.61213C5.39438 2.61157 5.39564 2.61096 5.39695 2.61039C5.40921 2.60512 5.42121 2.59936 5.43286 2.59307C5.43347 2.59275 5.4341 2.59246 5.43471 2.59211C5.44643 2.58574 5.45775 2.57871 5.46884 2.57137C5.47048 2.57029 5.47214 2.56924 5.47376 2.56814C5.48433 2.56094 5.4945 2.55325 5.50441 2.54521C5.50622 2.54374 5.508 2.54228 5.50978 2.54079C5.51953 2.53261 5.52893 2.52412 5.53798 2.51517C5.53945 2.51371 5.54088 2.51221 5.54234 2.51074C5.55113 2.50174 5.55973 2.49248 5.56784 2.48275C5.56814 2.48911 5.5683 2.49546 5.5683 2.50183C5.5683 2.72186 5.38931 2.90086 5.16926 2.90086C4.9492 2.90086 4.77021 2.72186 4.77021 2.50183C4.77035 2.49546 4.77049 2.48911 4.7708 2.48275ZM2.10619 0.625191C2.10619 0.566949 2.15358 0.519559 2.21182 0.519559H2.30571C2.36395 0.519559 2.41134 0.566949 2.41134 0.625191C2.41134 0.919332 2.41134 1.88836 2.41134 2.19004C2.41134 2.24829 2.36395 2.29568 2.30571 2.29568H2.2118C2.15355 2.29568 2.10616 2.24829 2.10616 2.19004C2.10619 2.04855 2.10619 0.776035 2.10619 0.625191ZM1.99338 2.59216C1.99399 2.59249 1.99462 2.59277 1.99523 2.59312C2.00691 2.5994 2.01891 2.60517 2.03114 2.61044C2.03245 2.611 2.03372 2.61161 2.03503 2.61218C2.04717 2.61726 2.05962 2.62176 2.07223 2.62582C2.07434 2.6265 2.07642 2.6272 2.07853 2.62783C2.09098 2.63163 2.10366 2.63486 2.11652 2.63763C2.1188 2.63812 2.12107 2.63857 2.12337 2.63901C2.13647 2.64159 2.14973 2.64368 2.16321 2.64511C2.16499 2.64529 2.16677 2.64539 2.16858 2.64557C2.1828 2.64691 2.1972 2.64775 2.21177 2.64775H2.30566C2.32024 2.64775 2.33461 2.64691 2.34886 2.64557C2.35064 2.64541 2.35245 2.64532 2.35423 2.64511C2.3677 2.64368 2.38097 2.64159 2.39407 2.63901C2.39637 2.63857 2.39864 2.63812 2.40091 2.63763C2.4138 2.63489 2.42648 2.63165 2.43891 2.62783C2.44102 2.62718 2.44313 2.62647 2.44523 2.62582C2.45787 2.62176 2.47031 2.61726 2.48243 2.61218C2.48374 2.61161 2.48501 2.611 2.48632 2.61044C2.49858 2.60517 2.51058 2.5994 2.52223 2.59312C2.52284 2.59279 2.52347 2.59251 2.52408 2.59216C2.5358 2.58579 2.54714 2.57875 2.5582 2.57142C2.55984 2.57034 2.56151 2.56928 2.56313 2.56818C2.5737 2.56099 2.58387 2.5533 2.59378 2.54526C2.59559 2.54379 2.59737 2.54233 2.59915 2.54083C2.6089 2.53265 2.6183 2.52417 2.62734 2.51521C2.62882 2.51376 2.63025 2.51226 2.6317 2.51079C2.64052 2.50176 2.64912 2.4925 2.65723 2.48278C2.65753 2.48913 2.6577 2.49548 2.6577 2.50186C2.6577 2.72189 2.4787 2.90088 2.25865 2.90088C2.0307 2.90088 1.84901 2.70939 1.86009 2.48275C1.89607 2.52578 1.94273 2.56453 1.99338 2.59216ZM0.352102 2.11146C0.352102 1.78464 0.618 1.51875 0.944836 1.51875H1.75413V1.94587C1.24732 2.40639 1.57423 3.25296 2.25879 3.25296C2.67295 3.25296 3.00991 2.916 3.00991 2.50183C3.00991 2.28893 2.91916 2.08734 2.76345 1.94585V1.51877H4.66474V1.94589C4.50902 2.08739 4.41827 2.28895 4.41827 2.50186C4.41827 2.91604 4.75523 3.25298 5.1694 3.25298C5.58356 3.25298 5.92052 2.91602 5.92052 2.50186C5.92052 2.28895 5.82977 2.08736 5.67405 1.94587V1.51877H7.57535V1.94589C7.41963 2.08739 7.32888 2.28895 7.32888 2.50186C7.32888 2.91604 7.66584 3.25298 8.08001 3.25298C8.4942 3.25298 8.83113 2.91602 8.83113 2.50186C8.83113 2.28895 8.74038 2.08736 8.58466 1.94587V1.51877H9.72124C10.0481 1.51877 10.314 1.78467 10.314 2.11148V3.91021H0.352102V2.11146ZM11.624 11.0933C11.5384 11.3249 11.3149 11.4806 11.0678 11.4806H10.4562C10.5873 11.3184 10.666 11.1122 10.666 10.8878V8.55621C10.666 8.45899 10.5872 8.38017 10.49 8.38017C10.3927 8.38017 10.3139 8.45899 10.3139 8.55621V10.8878C10.3139 11.2147 10.048 11.4806 9.72117 11.4806H0.944813C0.617977 11.4806 0.352078 11.2147 0.352078 10.8878V4.91955H4.75978C4.857 4.91955 4.93582 4.84073 4.93582 4.74351C4.93582 4.64629 4.857 4.56747 4.75978 4.56747H0.352102V4.26232H10.314V4.56747H5.57897C5.48175 4.56747 5.40293 4.64629 5.40293 4.74351C5.40293 4.84073 5.48175 4.91955 5.57897 4.91955H10.314V7.73468C10.314 7.83189 10.3928 7.91071 10.49 7.91071C10.5872 7.91071 10.6661 7.83189 10.6661 7.73468C10.6661 7.59684 10.6661 4.55782 10.6661 4.41963L11.6327 10.7199C11.6329 10.7208 11.633 10.7217 11.6331 10.7226C11.6704 10.9653 11.6249 11.0908 11.624 11.0933Z" fill="#FF6C44"/>
<path d="M4.01246 5.82202H3.43287C3.33566 5.82202 3.25684 5.90084 3.25684 5.99807C3.25684 6.09529 3.33566 6.17411 3.43287 6.17411H4.01246C4.1097 6.17411 4.1885 6.09529 4.1885 5.99807C4.18852 5.90084 4.1097 5.82202 4.01246 5.82202Z" fill="#FF6C44"/>
<path d="M5.62386 5.82202H5.0442C4.94698 5.82202 4.86816 5.90084 4.86816 5.99807C4.86816 6.09529 4.94698 6.17411 5.0442 6.17411H5.62386C5.7211 6.17411 5.7999 6.09529 5.7999 5.99807C5.79992 5.90084 5.72113 5.82202 5.62386 5.82202Z" fill="#FF6C44"/>
<path d="M7.23521 5.82202H6.65553C6.55831 5.82202 6.47949 5.90084 6.47949 5.99807C6.47949 6.09529 6.55831 6.17411 6.65553 6.17411H7.23521C7.33243 6.17411 7.41125 6.09529 7.41125 5.99807C7.41127 5.90084 7.33243 5.82202 7.23521 5.82202Z" fill="#FF6C44"/>
<path d="M8.84603 5.82202H8.26637C8.16915 5.82202 8.09033 5.90084 8.09033 5.99807C8.09033 6.09529 8.16915 6.17411 8.26637 6.17411H8.84603C8.94327 6.17411 9.02207 6.09529 9.02207 5.99807C9.02209 5.90084 8.94329 5.82202 8.84603 5.82202Z" fill="#FF6C44"/>
<path d="M2.4012 7.24048H1.82155C1.72433 7.24048 1.64551 7.3193 1.64551 7.41652C1.64551 7.51374 1.72433 7.59256 1.82155 7.59256H2.4012C2.49845 7.59256 2.57724 7.51374 2.57724 7.41652C2.57727 7.31928 2.49847 7.24048 2.4012 7.24048Z" fill="#FF6C44"/>
<path d="M4.01246 7.24048H3.43287C3.33566 7.24048 3.25684 7.3193 3.25684 7.41652C3.25684 7.51374 3.33566 7.59256 3.43287 7.59256H4.01246C4.1097 7.59256 4.1885 7.51374 4.1885 7.41652C4.18852 7.31928 4.1097 7.24048 4.01246 7.24048Z" fill="#FF6C44"/>
<path d="M5.62386 7.24048H5.0442C4.94698 7.24048 4.86816 7.3193 4.86816 7.41652C4.86816 7.51374 4.94698 7.59256 5.0442 7.59256H5.62386C5.7211 7.59256 5.7999 7.51374 5.7999 7.41652C5.79992 7.31928 5.72113 7.24048 5.62386 7.24048Z" fill="#FF6C44"/>
<path d="M7.23521 7.24048H6.65553C6.55831 7.24048 6.47949 7.3193 6.47949 7.41652C6.47949 7.51374 6.55831 7.59256 6.65553 7.59256H7.23521C7.33243 7.59256 7.41125 7.51374 7.41125 7.41652C7.41127 7.31928 7.33243 7.24048 7.23521 7.24048Z" fill="#FF6C44"/>
<path d="M8.84603 7.24048H8.26637C8.16915 7.24048 8.09033 7.3193 8.09033 7.41652C8.09033 7.51374 8.16915 7.59256 8.26637 7.59256H8.84603C8.94327 7.59256 9.02207 7.51374 9.02207 7.41652C9.02209 7.31928 8.94329 7.24048 8.84603 7.24048Z" fill="#FF6C44"/>
<path d="M2.4012 8.65894H1.82155C1.72433 8.65894 1.64551 8.73776 1.64551 8.83497C1.64551 8.93219 1.72433 9.01101 1.82155 9.01101H2.4012C2.49845 9.01101 2.57724 8.93219 2.57724 8.83497C2.57727 8.73776 2.49847 8.65894 2.4012 8.65894Z" fill="#FF6C44"/>
<path d="M4.01246 8.65894H3.43287C3.33566 8.65894 3.25684 8.73776 3.25684 8.83497C3.25684 8.93219 3.33566 9.01101 3.43287 9.01101H4.01246C4.1097 9.01101 4.1885 8.93219 4.1885 8.83497C4.18852 8.73776 4.1097 8.65894 4.01246 8.65894Z" fill="#FF6C44"/>
<path d="M5.62386 8.65894H5.0442C4.94698 8.65894 4.86816 8.73776 4.86816 8.83497C4.86816 8.93219 4.94698 9.01101 5.0442 9.01101H5.62386C5.7211 9.01101 5.7999 8.93219 5.7999 8.83497C5.79992 8.73776 5.72113 8.65894 5.62386 8.65894Z" fill="#FF6C44"/>
<path d="M7.23521 8.65894H6.65553C6.55831 8.65894 6.47949 8.73776 6.47949 8.83497C6.47949 8.93219 6.55831 9.01101 6.65553 9.01101H7.23521C7.33243 9.01101 7.41125 8.93219 7.41125 8.83497C7.41127 8.73776 7.33243 8.65894 7.23521 8.65894Z" fill="#FF6C44"/>
<path d="M8.84603 8.65894H8.26637C8.16915 8.65894 8.09033 8.73776 8.09033 8.83497C8.09033 8.93219 8.16915 9.01101 8.26637 9.01101H8.84603C8.94327 9.01101 9.02207 8.93219 9.02207 8.83497C9.02209 8.73776 8.94329 8.65894 8.84603 8.65894Z" fill="#FF6C44"/>
<path d="M2.4012 10.0771H1.82155C1.72433 10.0771 1.64551 10.156 1.64551 10.2532C1.64551 10.3504 1.72433 10.4292 1.82155 10.4292H2.4012C2.49845 10.4292 2.57724 10.3504 2.57724 10.2532C2.57727 10.156 2.49847 10.0771 2.4012 10.0771Z" fill="#FF6C44"/>
<path d="M4.01246 10.0771H3.43287C3.33566 10.0771 3.25684 10.156 3.25684 10.2532C3.25684 10.3504 3.33566 10.4292 3.43287 10.4292H4.01246C4.1097 10.4292 4.1885 10.3504 4.1885 10.2532C4.18852 10.156 4.1097 10.0771 4.01246 10.0771Z" fill="#FF6C44"/>
<path d="M5.62386 10.0771H5.0442C4.94698 10.0771 4.86816 10.156 4.86816 10.2532C4.86816 10.3504 4.94698 10.4292 5.0442 10.4292H5.62386C5.7211 10.4292 5.7999 10.3504 5.7999 10.2532C5.79992 10.156 5.72113 10.0771 5.62386 10.0771Z" fill="#FF6C44"/>
<path d="M7.23521 10.0771H6.65553C6.55831 10.0771 6.47949 10.156 6.47949 10.2532C6.47949 10.3504 6.55831 10.4292 6.65553 10.4292H7.23521C7.33243 10.4292 7.41125 10.3504 7.41125 10.2532C7.41127 10.156 7.33243 10.0771 7.23521 10.0771Z" fill="#FF6C44"/>
</svg>
