<svg width="24" height="24" viewBox="0 0 24 24" fill="none" xmlns="http://www.w3.org/2000/svg">
<path d="M19.714 12.0001C19.2406 12.0001 18.8569 12.3838 18.8569 12.8572V21.4285C18.8569 21.9019 18.4731 22.2857 17.9997 22.2857H2.57139C2.098 22.2857 1.71425 21.9019 1.71425 21.4285V4.2859C1.71425 3.8125 2.098 3.42875 2.57139 3.42875H12.857C13.3304 3.42875 13.7141 3.045 13.7141 2.57161C13.7141 2.09821 13.3304 1.71451 12.857 1.71451H2.57139C1.15125 1.71451 0 2.86576 0 4.2859V21.4285C0 22.8487 1.15125 23.9999 2.57139 23.9999H17.9998C19.4199 23.9999 20.5712 22.8487 20.5712 21.4285V12.8572C20.5712 12.3838 20.1874 12.0001 19.714 12.0001Z"/>
<path d="M22.896 0.961173C22.2806 0.345645 21.4458 -8.68844e-05 20.5754 1.35607e-05C19.7045 -0.00249757 18.8689 0.343837 18.2552 0.961725L6.96498 12.251C6.87131 12.3453 6.80065 12.46 6.75841 12.5861L5.04416 17.7289C4.89455 18.178 5.13738 18.6634 5.58652 18.8129C5.67365 18.842 5.76491 18.8568 5.85672 18.8569C5.94872 18.8567 6.04018 18.842 6.12757 18.8132L11.2704 17.0989C11.3967 17.0567 11.5114 16.9857 11.6055 16.8915L22.8956 5.60139C24.1771 4.32011 24.1772 2.2426 22.896 0.961173ZM21.6837 4.39022L10.5409 15.5329L7.21182 16.6446L8.32008 13.3198L19.4671 2.17711C20.0799 1.5655 21.0726 1.56651 21.6842 2.17932C21.9763 2.47207 22.1409 2.86837 22.1422 3.28196C22.1432 3.69775 21.9782 4.09672 21.6837 4.39022Z"/>
</svg>
