<svg width="12" height="12" viewBox="0 0 12 12" fill="none" xmlns="http://www.w3.org/2000/svg">
<path d="M6 2.34375C4.83689 2.34375 3.89062 3.29002 3.89062 4.45312C3.89062 5.61623 4.83689 6.5625 6 6.5625C7.16311 6.5625 8.10938 5.61623 8.10938 4.45312C8.10938 3.29002 7.16311 2.34375 6 2.34375ZM6 6.09375C5.09536 6.09375 4.35938 5.35777 4.35938 4.45312C4.35938 3.54848 5.09536 2.8125 6 2.8125C6.90464 2.8125 7.64062 3.54848 7.64062 4.45312C7.64062 5.35777 6.90464 6.09375 6 6.09375Z" fill="#FF6C44"/>
<path d="M8.10938 9.04688C8.23882 9.04688 8.34375 8.94194 8.34375 8.8125C8.34375 8.68306 8.23882 8.57812 8.10938 8.57812C7.97993 8.57812 7.875 8.68306 7.875 8.8125C7.875 8.94194 7.97993 9.04688 8.10938 9.04688Z" fill="#FF6C44"/>
<path d="M9.18565 6.84684L8.5095 7.80457C8.43483 7.91032 8.46005 8.05655 8.56577 8.13122C8.67155 8.20587 8.8178 8.18065 8.89242 8.07492L9.56667 7.11987C10.1466 6.34533 10.4531 5.4233 10.4531 4.45312C10.4531 1.99765 8.45548 0 6 0C3.54452 0 1.54688 1.99765 1.54688 4.45312C1.54688 5.4233 1.85337 6.34533 2.43333 7.11989L5.54763 11.5312H2.48438C2.35495 11.5312 2.25 11.6362 2.25 11.7656C2.25 11.8951 2.35495 12 2.48438 12H9.51562C9.64505 12 9.75 11.8951 9.75 11.7656C9.75 11.6362 9.64505 11.5312 9.51562 11.5312H6.45237L7.67653 9.79725C7.7512 9.6915 7.72598 9.54527 7.62026 9.4706C7.51446 9.39593 7.36823 9.42115 7.29361 9.5269L6 11.3592C6 11.3592 2.81175 6.84321 2.81039 6.84141C2.29048 6.14808 2.01562 5.32221 2.01562 4.45312C2.01562 2.25614 3.80302 0.46875 6 0.46875C8.19698 0.46875 9.98438 2.25614 9.98438 4.45312C9.98438 5.32221 9.70952 6.14808 9.18961 6.84141C9.18825 6.84321 9.18694 6.84502 9.18565 6.84684Z" fill="#FF6C44"/>
</svg>
