<svg width="150" height="150" viewBox="0 0 150 150" fill="none" xmlns="http://www.w3.org/2000/svg">
<g clip-path="url(#clip0)">
<path d="M140.625 63.1301C144.185 63.1301 147.071 60.2445 147.071 56.6848C147.071 53.1252 144.185 50.2395 140.625 50.2395C137.066 50.2395 134.18 53.1252 134.18 56.6848C134.18 60.2445 137.066 63.1301 140.625 63.1301Z" fill="#FF6C44"/>
<path d="M92.3171 46.8322C95.8768 46.8322 98.7625 43.9465 98.7625 40.3868C98.7625 36.8272 95.8768 33.9415 92.3171 33.9415C88.7575 33.9415 85.8718 36.8272 85.8718 40.3868C85.8718 43.9465 88.7575 46.8322 92.3171 46.8322Z" fill="#FFA133"/>
<path d="M37.5007 15.8203C41.0604 15.8203 43.946 12.9346 43.946 9.375C43.946 5.81535 41.0604 2.92969 37.5007 2.92969C33.9411 2.92969 31.0554 5.81535 31.0554 9.375C31.0554 12.9346 33.9411 15.8203 37.5007 15.8203Z" fill="#FFA133"/>
<path d="M106.028 111.111L8.66537 146.801C5.25933 148.049 1.95114 144.741 3.19947 141.335L38.8894 43.9726C39.9605 41.0508 43.7008 40.2261 45.9013 42.4266L107.574 104.099C109.774 106.299 108.949 110.04 106.028 111.111Z" fill="#FFA133"/>
<path d="M11.6057 118.616L11.4821 118.74L3.19957 141.335C1.95094 144.741 5.25943 148.049 8.66549 146.801L31.4415 138.452L11.6057 118.616Z" fill="#FFA133"/>
<path d="M17.325 104.557L45.4429 132.675L71.3651 123.026L26.9745 78.6351L17.325 104.557Z" fill="#FF6C44"/>
<path d="M31.5979 138.394L11.6057 118.402L17.3251 104.557L45.443 132.675L31.5979 138.394Z" fill="#F5F5F8"/>
<path d="M71.3652 123.026L26.9746 78.6354L32.0512 64.1475L85.8531 117.949L71.3652 123.026Z" fill="#F5F5F8"/>
<path d="M144.213 83.6195C144.972 82.1907 144.43 80.417 143.001 79.6577C126.585 70.9342 106.56 73.0263 92.3343 84.716L87.6008 79.9826L95.3314 72.252C96.4754 71.108 96.4754 69.2529 95.3314 68.1086C94.187 66.9645 92.3326 66.9645 91.1879 68.1086L83.4574 75.8391L64.5958 56.9776C68.8861 51.224 71.5852 44.4658 72.4362 37.2696C73.4168 28.974 71.8562 20.6759 67.9222 13.2735C67.1631 11.8447 65.3889 11.3022 63.9604 12.0612C62.5316 12.8206 61.989 14.5942 62.7481 16.023C69.058 27.897 68.0704 41.9964 60.4023 52.784L47.9726 40.3543C46.2285 38.6103 43.7494 37.8866 41.3407 38.4172C38.9319 38.9483 36.9872 40.6478 36.1381 42.9637L0.448825 140.326C-0.525878 142.986 0.112499 145.882 2.11552 147.885C3.49862 149.268 5.30711 150 7.17009 150C8.00505 150 8.85084 149.853 9.67379 149.551L107.036 113.862C109.352 113.013 111.051 111.068 111.583 108.659C112.113 106.251 111.389 103.772 109.645 102.027L96.5029 88.8847C108.882 79.0076 126.103 77.3133 140.251 84.832C141.68 85.5914 143.454 85.0483 144.213 83.6195ZM46.6627 129.752L20.2485 103.337L27.5674 83.3713L66.6287 122.433L46.6627 129.752ZM32.3463 135L15.0005 117.654L18.0257 109.401L40.5989 131.974L32.3463 135ZM7.657 144.05C6.96267 144.304 6.48308 143.966 6.25837 143.741C6.03396 143.517 5.69558 143.037 5.95017 142.343L12.7775 123.718L26.2821 137.222L7.657 144.05ZM105.861 107.398C105.802 107.663 105.615 108.142 105.02 108.36L87.0087 114.962L70.3456 98.2986C69.2016 97.1543 67.3465 97.1546 66.2025 98.2983C65.0584 99.4423 65.0581 101.297 66.2022 102.441L80.9449 117.184L72.6923 120.21L29.7901 77.3075L32.8153 69.0549L47.5583 83.7976C48.1302 84.3697 48.8802 84.6557 49.6299 84.6557C50.3796 84.6557 51.1296 84.3695 51.7015 83.7976C52.8455 82.6535 52.8455 80.7985 51.7012 79.6544L35.038 62.9913L41.6401 44.9805C41.8583 44.3852 42.3367 44.198 42.6028 44.1391C42.6836 44.1213 42.7876 44.106 42.9057 44.106C43.1749 44.106 43.518 44.1857 43.8297 44.4977L105.502 106.17C105.951 106.619 105.919 107.132 105.861 107.398Z" fill="#111A2C"/>
<path d="M88.3582 23.3801C89.9762 23.3801 91.2878 22.0684 91.2878 20.4504C91.2878 17.9968 93.2841 16.0008 95.7378 16.0008C101.422 16.0008 106.047 11.3762 106.047 5.69177C106.047 4.07371 104.735 2.76208 103.117 2.76208C101.499 2.76208 100.187 4.07371 100.187 5.69177C100.187 8.14539 98.1911 10.1414 95.7378 10.1414C90.0533 10.1414 85.4285 14.7659 85.4285 20.4504C85.4285 22.0684 86.7404 23.3801 88.3582 23.3801Z" fill="#111A2C"/>
<path d="M114.351 51.0337C120.222 51.0337 124.998 46.2574 124.998 40.3869C124.998 37.7472 127.145 35.5995 129.785 35.5995C131.403 35.5995 132.715 34.2879 132.715 32.6698C132.715 31.0517 131.403 29.7401 129.785 29.7401C123.915 29.7401 119.139 34.5164 119.139 40.3869C119.139 43.0265 116.991 45.1743 114.351 45.1743C112.733 45.1743 111.421 46.4859 111.421 48.104C111.421 49.7221 112.733 51.0337 114.351 51.0337Z" fill="#111A2C"/>
<path d="M131.25 56.6848C131.25 61.8542 135.456 66.0598 140.625 66.0598C145.795 66.0598 150 61.8542 150 56.6848C150 51.5154 145.795 47.3098 140.625 47.3098C135.456 47.3098 131.25 51.5154 131.25 56.6848ZM140.625 53.1692C142.564 53.1692 144.141 54.7462 144.141 56.6848C144.141 58.6234 142.564 60.2004 140.625 60.2004C138.687 60.2004 137.11 58.6234 137.11 56.6848C137.11 54.7462 138.687 53.1692 140.625 53.1692Z" fill="#111A2C"/>
<path d="M92.3171 49.7618C97.4866 49.7618 101.692 45.5563 101.692 40.3868C101.692 35.2174 97.4866 31.0118 92.3171 31.0118C87.1477 31.0118 82.9421 35.2174 82.9421 40.3868C82.9421 45.5563 87.148 49.7618 92.3171 49.7618ZM92.3171 36.8712C94.2557 36.8712 95.8328 38.4483 95.8328 40.3868C95.8328 42.3254 94.2557 43.9025 92.3171 43.9025C90.3786 43.9025 88.8015 42.3254 88.8015 40.3868C88.8015 38.4483 90.3786 36.8712 92.3171 36.8712Z" fill="#111A2C"/>
<path d="M37.5007 18.75C42.6702 18.75 46.8757 14.5444 46.8757 9.375C46.8757 4.20557 42.6702 0 37.5007 0C32.3313 0 28.1257 4.20557 28.1257 9.375C28.1257 14.5444 32.3313 18.75 37.5007 18.75ZM37.5007 5.85938C39.4393 5.85938 41.0164 7.43643 41.0164 9.375C41.0164 11.3136 39.4393 12.8906 37.5007 12.8906C35.5622 12.8906 33.9851 11.3136 33.9851 9.375C33.9851 7.43643 35.5622 5.85938 37.5007 5.85938Z" fill="#111A2C"/>
<path d="M132.569 102.849C131.426 101.705 129.571 101.705 128.426 102.848C127.282 103.992 127.282 105.847 128.426 106.991L131.188 109.754C131.76 110.326 132.51 110.612 133.26 110.612C134.009 110.612 134.759 110.325 135.331 109.754C136.475 108.609 136.475 106.754 135.331 105.61L132.569 102.849Z" fill="#111A2C"/>
<path d="M146.38 116.659C145.236 115.515 143.381 115.515 142.236 116.659C141.092 117.803 141.092 119.658 142.236 120.803L144.999 123.565C145.571 124.137 146.32 124.423 147.07 124.423C147.82 124.423 148.57 124.137 149.142 123.565C150.286 122.421 150.286 120.566 149.142 119.421L146.38 116.659Z" fill="#111A2C"/>
<path d="M144.999 102.849L142.236 105.611C141.092 106.755 141.092 108.61 142.236 109.754C142.809 110.326 143.558 110.612 144.308 110.612C145.058 110.612 145.808 110.326 146.38 109.754L149.142 106.992C150.286 105.848 150.286 103.993 149.142 102.849C147.998 101.704 146.143 101.705 144.999 102.849Z" fill="#111A2C"/>
<path d="M131.188 116.659L128.426 119.421C127.282 120.565 127.282 122.42 128.426 123.565C128.998 124.137 129.748 124.423 130.497 124.423C131.247 124.423 131.997 124.137 132.569 123.565L135.331 120.803C136.475 119.658 136.475 117.803 135.331 116.659C134.187 115.515 132.332 115.515 131.188 116.659Z" fill="#111A2C"/>
<path d="M144.308 8.62141C145.058 8.62141 145.808 8.33547 146.38 7.76331L149.142 5.0012C150.286 3.85715 150.286 2.00208 149.142 0.858032C147.998 -0.286011 146.143 -0.286011 144.999 0.858032L142.236 3.62014C141.092 4.76418 141.092 6.61926 142.236 7.76331C142.809 8.33547 143.558 8.62141 144.308 8.62141Z" fill="#111A2C"/>
<path d="M130.498 22.432C131.248 22.432 131.997 22.1461 132.569 21.5739L135.331 18.8118C136.475 17.6677 136.475 15.8127 135.331 14.6683C134.187 13.5243 132.332 13.5243 131.188 14.6683L128.426 17.4304C127.282 18.5745 127.282 20.4296 128.426 21.5739C128.998 22.1461 129.748 22.432 130.498 22.432Z" fill="#111A2C"/>
<path d="M146.38 14.6686C145.236 13.5245 143.381 13.5245 142.236 14.6686C141.092 15.8126 141.092 17.6677 142.236 18.812L144.999 21.5741C145.571 22.1463 146.32 22.4323 147.07 22.4323C147.82 22.4323 148.57 22.1463 149.142 21.5741C150.286 20.4301 150.286 18.575 149.142 17.4307L146.38 14.6686Z" fill="#111A2C"/>
<path d="M131.188 7.76331C131.76 8.33547 132.51 8.62141 133.26 8.62141C134.009 8.62141 134.759 8.33547 135.331 7.76331C136.475 6.61926 136.475 4.76418 135.331 3.62014L132.569 0.858032C131.425 -0.286011 129.571 -0.286011 128.426 0.858032C127.282 2.00208 127.282 3.85715 128.426 5.0012L131.188 7.76331Z" fill="#111A2C"/>
<path d="M58.9512 88.1189C58.1807 88.1189 57.4248 88.4324 56.8799 88.9773C56.335 89.5222 56.0215 90.2781 56.0215 91.0486C56.0215 91.8191 56.335 92.5749 56.8799 93.1199C57.4248 93.6648 58.1807 93.9783 58.9512 93.9783C59.7217 93.9783 60.4775 93.6648 61.0225 93.1199C61.5674 92.5749 61.8809 91.8191 61.8809 91.0486C61.8809 90.2781 61.5674 89.5222 61.0225 88.9773C60.4775 88.4324 59.7217 88.1189 58.9512 88.1189Z" fill="#111A2C"/>
<path d="M101.694 57.6021L99.5702 59.7261C98.4261 60.8701 98.4261 62.7252 99.5702 63.8695C100.142 64.4417 100.892 64.7276 101.642 64.7276C102.391 64.7276 103.141 64.4417 103.713 63.8695L105.837 61.7455C106.981 60.6015 106.981 58.7464 105.837 57.6021C104.693 56.458 102.839 56.458 101.694 57.6021Z" fill="#111A2C"/>
</g>
<defs>
<clipPath id="clip0">
<rect width="150" height="150" fill="white"/>
</clipPath>
</defs>
</svg>
