<svg width="375" height="810" viewBox="0 0 375 810" fill="none" xmlns="http://www.w3.org/2000/svg">
<path d="M72.4898 316.3C74.235 316.3 75.6498 314.885 75.6498 313.14C75.6498 311.395 74.235 309.98 72.4898 309.98C70.7446 309.98 69.3298 311.395 69.3298 313.14C69.3298 314.885 70.7446 316.3 72.4898 316.3Z" fill="#FAFAFF"/>
<path d="M17.7799 467.78C19.5251 467.78 20.9399 466.365 20.9399 464.62C20.9399 462.875 19.5251 461.46 17.7799 461.46C16.0347 461.46 14.6199 462.875 14.6199 464.62C14.6199 466.365 16.0347 467.78 17.7799 467.78Z" fill="#FAFAFF"/>
<path d="M82.16 492.32C83.9052 492.32 85.32 490.905 85.32 489.16C85.32 487.415 83.9052 486 82.16 486C80.4148 486 79 487.415 79 489.16C79 490.905 80.4148 492.32 82.16 492.32Z" fill="#FAFAFF"/>
<path d="M258.09 788.24C259.835 788.24 261.25 786.825 261.25 785.08C261.25 783.335 259.835 781.92 258.09 781.92C256.344 781.92 254.93 783.335 254.93 785.08C254.93 786.825 256.344 788.24 258.09 788.24Z" fill="#FAFAFF"/>
<path d="M36.1898 567.2C37.935 567.2 39.3498 565.785 39.3498 564.04C39.3498 562.295 37.935 560.88 36.1898 560.88C34.4446 560.88 33.0298 562.295 33.0298 564.04C33.0298 565.785 34.4446 567.2 36.1898 567.2Z" fill="#FAFAFF"/>
<path d="M112.24 635.73C113.985 635.73 115.4 634.315 115.4 632.57C115.4 630.825 113.985 629.41 112.24 629.41C110.495 629.41 109.08 630.825 109.08 632.57C109.08 634.315 110.495 635.73 112.24 635.73Z" fill="#FAFAFF"/>
<path d="M22.3797 722.6C24.1249 722.6 25.5397 721.185 25.5397 719.44C25.5397 717.695 24.1249 716.28 22.3797 716.28C20.6345 716.28 19.2197 717.695 19.2197 719.44C19.2197 721.185 20.6345 722.6 22.3797 722.6Z" fill="#FAFAFF"/>
<path d="M349.16 548.26C350.905 548.26 352.32 546.845 352.32 545.1C352.32 543.355 350.905 541.94 349.16 541.94C347.415 541.94 346 543.355 346 545.1C346 546.845 347.415 548.26 349.16 548.26Z" fill="#FAFAFF"/>
<path d="M312.34 627.16C314.085 627.16 315.5 625.745 315.5 624C315.5 622.255 314.085 620.84 312.34 620.84C310.594 620.84 309.18 622.255 309.18 624C309.18 625.745 310.594 627.16 312.34 627.16Z" fill="#FAFAFF"/>
<path d="M354.95 436.22C356.695 436.22 358.11 434.805 358.11 433.06C358.11 431.315 356.695 429.9 354.95 429.9C353.205 429.9 351.79 431.315 351.79 433.06C351.79 434.805 353.205 436.22 354.95 436.22Z" fill="#FAFAFF"/>
<path d="M198.2 526.7C199.945 526.7 201.36 525.285 201.36 523.54C201.36 521.795 199.945 520.38 198.2 520.38C196.455 520.38 195.04 521.795 195.04 523.54C195.04 525.285 196.455 526.7 198.2 526.7Z" fill="#FAFAFF"/>
<path d="M64.4798 221.43C66.225 221.43 67.6398 220.015 67.6398 218.27C67.6398 216.525 66.225 215.11 64.4798 215.11C62.7346 215.11 61.3198 216.525 61.3198 218.27C61.3198 220.015 62.7346 221.43 64.4798 221.43Z" fill="#FAFAFF"/>
<path d="M270.26 517.75C272.005 517.75 273.42 516.335 273.42 514.59C273.42 512.845 272.005 511.43 270.26 511.43C268.515 511.43 267.1 512.845 267.1 514.59C267.1 516.335 268.515 517.75 270.26 517.75Z" fill="#FAFAFF"/>
<path d="M307.61 274.22C309.355 274.22 310.77 272.805 310.77 271.06C310.77 269.315 309.355 267.9 307.61 267.9C305.864 267.9 304.45 269.315 304.45 271.06C304.45 272.805 305.864 274.22 307.61 274.22Z" fill="#FAFAFF"/>
<path d="M364.41 332.6C366.155 332.6 367.57 331.185 367.57 329.44C367.57 327.695 366.155 326.28 364.41 326.28C362.665 326.28 361.25 327.695 361.25 329.44C361.25 331.185 362.665 332.6 364.41 332.6Z" fill="#FAFAFF"/>
<path d="M313.92 381C315.665 381 317.08 379.585 317.08 377.84C317.08 376.095 315.665 374.68 313.92 374.68C312.175 374.68 310.76 376.095 310.76 377.84C310.76 379.585 312.175 381 313.92 381Z" fill="#FAFAFF"/>
<path d="M198.73 294.73C200.475 294.73 201.89 293.315 201.89 291.57C201.89 289.825 200.475 288.41 198.73 288.41C196.985 288.41 195.57 289.825 195.57 291.57C195.57 293.315 196.985 294.73 198.73 294.73Z" fill="#FAFAFF"/>
<path d="M136.13 303.67C137.875 303.67 139.29 302.255 139.29 300.51C139.29 298.765 137.875 297.35 136.13 297.35C134.385 297.35 132.97 298.765 132.97 300.51C132.97 302.255 134.385 303.67 136.13 303.67Z" fill="#FAFAFF"/>
<path d="M127.11 154.85C128.855 154.85 130.27 153.435 130.27 151.69C130.27 149.945 128.855 148.53 127.11 148.53C125.364 148.53 123.95 149.945 123.95 151.69C123.95 153.435 125.364 154.85 127.11 154.85Z" fill="#FAFAFF"/>
<path d="M140.16 75.32C141.905 75.32 143.32 73.9052 143.32 72.16C143.32 70.4148 141.905 69 140.16 69C138.415 69 137 70.4148 137 72.16C137 73.9052 138.415 75.32 140.16 75.32Z" fill="#FAFAFF"/>
<path d="M297.16 108.32C298.905 108.32 300.32 106.905 300.32 105.16C300.32 103.415 298.905 102 297.16 102C295.415 102 294 103.415 294 105.16C294 106.905 295.415 108.32 297.16 108.32Z" fill="#FAFAFF"/>
<path d="M198.16 21.32C199.905 21.32 201.32 19.9052 201.32 18.16C201.32 16.4148 199.905 15 198.16 15C196.415 15 195 16.4148 195 18.16C195 19.9052 196.415 21.32 198.16 21.32Z" fill="#FAFAFF"/>
<path d="M221.87 350.49C223.615 350.49 225.03 349.075 225.03 347.33C225.03 345.585 223.615 344.17 221.87 344.17C220.125 344.17 218.71 345.585 218.71 347.33C218.71 349.075 220.125 350.49 221.87 350.49Z" fill="#FAFAFF"/>
<path d="M252.16 428.32C253.905 428.32 255.32 426.905 255.32 425.16C255.32 423.415 253.905 422 252.16 422C250.415 422 249 423.415 249 425.16C249 426.905 250.415 428.32 252.16 428.32Z" fill="#FAFAFF"/>
<path d="M5.68979 333.66C7.435 333.66 8.84978 332.245 8.84978 330.5C8.84978 328.755 7.435 327.34 5.68979 327.34C3.94457 327.34 2.52979 328.755 2.52979 330.5C2.52979 332.245 3.94457 333.66 5.68979 333.66Z" fill="#FAFAFF"/>
<path d="M36.7198 388.89C38.465 388.89 39.8798 387.475 39.8798 385.73C39.8798 383.985 38.465 382.57 36.7198 382.57C34.9746 382.57 33.5598 383.985 33.5598 385.73C33.5598 387.475 34.9746 388.89 36.7198 388.89Z" fill="#FAFAFF"/>
<path d="M-43.7402 274.56C-43.0602 276.66 -42.0702 278.28 -40.8102 279.49C-41.4402 281.15 -41.1102 282.82 -40.7002 283.75C-40.1502 285.5 -38.7702 286.76 -37.1302 287.25C-38.0802 288.27 -38.5002 289.74 -38.0902 291.17L-37.8902 291.86C-37.4202 293.5 -36.0302 294.62 -34.4302 294.82C-35.6802 296.55 -36.1102 298.79 -35.5202 300.89C-34.8502 303.24 -33.0602 304.98 -30.8902 305.69C-32.0402 307.41 -32.4902 309.58 -31.8902 311.73L-30.7102 315.88C-29.6102 319.74 -25.5802 322 -21.7102 320.9L48.6398 300.95C52.4998 299.85 54.7598 295.82 53.6598 291.95L52.4798 287.8C51.8298 285.5 50.1198 283.79 48.0398 283C49.2998 281.3 49.8098 279.06 49.1898 276.87C48.5098 274.49 46.6698 272.67 44.3498 272C45.1398 271 45.4698 269.65 45.0898 268.33L44.8898 267.64C44.4798 266.2 43.3498 265.17 42.0098 264.81C43.1898 263.51 43.6998 261.67 43.1998 259.9C43.0298 259.17 42.4798 257.27 41.2398 256.29C41.6498 254.53 41.5398 252.5 40.8898 250.22L40.5498 249.04L40.5998 249.02C40.5898 249 40.5498 248.9 40.4598 248.72L40.4398 248.66H40.4298C38.9198 245.53 26.6998 223.2 -9.62018 233.5C-47.3202 244.19 -44.4602 271.18 -44.2202 272.98L-44.2402 272.99L-43.7402 274.56ZM40.0498 260.69C40.3598 261.79 39.7198 262.93 38.6298 263.24L-35.0702 284.15C-36.1702 284.46 -37.3102 283.82 -37.6202 282.73L-37.7302 282.46C-37.7302 282.45 -37.9602 281.95 -37.9302 281.32C-34.8802 282.4 -32.0502 281.34 -32.0602 281.34C-29.3002 280.56 -28.3002 278.7 -27.4902 277.2C-26.7902 275.9 -26.3302 275.05 -24.8902 274.64C-23.4502 274.23 -22.6102 274.72 -21.3302 275.46C-19.8602 276.31 -18.0302 277.37 -15.2702 276.59C-12.5202 275.81 -11.5102 273.95 -10.7102 272.45C-10.0102 271.15 -9.55018 270.3 -8.12018 269.89C-6.75018 269.5 -5.96018 269.9 -4.57018 270.71C-3.10018 271.56 -1.27018 272.62 1.47982 271.84C4.22982 271.06 5.23982 269.2 6.03982 267.7C6.73982 266.4 7.19982 265.55 8.62982 265.14C10.0698 264.73 10.9098 265.22 12.1798 265.96C13.6498 266.81 15.4798 267.87 18.2298 267.09C20.9798 266.31 21.9798 264.45 22.7898 262.95C23.4898 261.65 23.9498 260.8 25.3798 260.39C26.8198 259.98 27.6598 260.47 28.9298 261.21C30.3898 262.05 32.1998 263.1 34.9098 262.36C35.0098 262.34 35.1898 262.3 35.4098 262.24C36.3598 261.97 38.2298 261.25 39.6498 259.54C39.7998 259.86 39.9498 260.29 40.0498 260.69ZM37.4898 256.98C36.3798 258.76 34.2698 259.16 34.2698 259.16L34.0898 259.2C32.6598 259.61 31.8098 259.12 30.5398 258.38C29.0698 257.53 27.2398 256.47 24.4898 257.25C21.7398 258.03 20.7298 259.89 19.9298 261.39C19.2298 262.68 18.7698 263.54 17.3398 263.95C15.8998 264.36 15.0598 263.87 13.7898 263.13C12.3198 262.28 10.4898 261.22 7.73982 262C4.98982 262.78 3.97982 264.64 3.17982 266.14C2.47982 267.44 2.01982 268.29 0.589817 268.7C-0.780182 269.09 -1.57018 268.69 -2.96018 267.88C-4.43018 267.03 -6.26018 265.97 -9.01018 266.75C-11.7602 267.53 -12.7702 269.39 -13.5702 270.89C-14.2702 272.19 -14.7302 273.04 -16.1602 273.45C-17.6002 273.86 -18.4402 273.37 -19.7202 272.63C-21.1902 271.78 -23.0202 270.72 -25.7802 271.5C-28.5402 272.28 -29.5402 274.14 -30.3402 275.64C-31.0402 276.94 -31.5002 277.79 -33.0802 278.25C-33.1002 278.26 -35.2702 279.06 -37.3002 278.08C-38.4202 277.54 -39.3302 276.55 -40.0302 275.11L38.1198 252.66C38.3898 254.44 38.1798 255.88 37.4898 256.98ZM-32.5802 294.62L7.45982 283.26L9.07982 288.97C9.47982 290.37 10.7198 291.29 12.0998 291.36L-27.6802 302.64C-29.7202 303.22 -31.8402 302.03 -32.4202 300C-32.8202 298.57 -32.3902 297.07 -31.2802 296.08L-32.5802 294.62ZM46.0598 277.74C46.6398 279.78 45.4498 281.9 43.4198 282.48L27.4098 287.02L28.2898 290.14L28.6298 290.04L28.7098 290.32L44.3498 285.88C46.4998 285.27 48.7398 286.52 49.3498 288.67L50.5298 292.82C51.1398 294.97 49.8898 297.21 47.7398 297.82L-22.6102 317.77C-24.7602 318.38 -27.0002 317.13 -27.6102 314.98L-28.7902 310.83C-29.4002 308.68 -28.1502 306.44 -26.0002 305.83L21.5698 292.34L20.6898 289.22L20.5998 289.24L20.5198 288.96L14.1298 290.77C15.2698 289.99 15.8398 288.55 15.4498 287.15L13.8298 281.44L18.3098 280.17L21.4698 291.3C21.9698 293.06 23.7998 294.08 25.5598 293.58C27.3198 293.08 28.3398 291.25 27.8398 289.49L24.6798 278.36L42.2398 273.38C42.5398 273.29 42.8198 273.17 43.0798 273.03L42.8398 274.96C44.3798 275.17 45.6398 276.25 46.0598 277.74ZM-8.75018 236.6C24.1698 227.26 35.3098 245.64 37.2598 249.55L-41.0902 272.05C-41.4702 268.4 -42.3902 246.14 -8.75018 236.6Z" fill="#FAFAFF"/>
<path d="M-0.330252 248.59C-0.900252 248.75 -1.23025 249.35 -1.07025 249.92C-0.91025 250.49 -0.310252 250.82 0.259748 250.66C0.829748 250.5 1.15975 249.9 0.99975 249.33C0.83975 248.76 0.249748 248.42 -0.330252 248.59Z" fill="#FAFAFF"/>
<path d="M22.9598 243.47C22.3898 243.63 22.0598 244.23 22.2198 244.8C22.3798 245.37 22.9798 245.7 23.5498 245.54C24.1198 245.38 24.4498 244.78 24.2898 244.21C24.1198 243.64 23.5298 243.31 22.9598 243.47Z" fill="#FAFAFF"/>
<path d="M8.85994 238.35C8.28994 238.51 7.95994 239.11 8.11994 239.68C8.27994 240.25 8.87994 240.58 9.44994 240.42C10.0199 240.26 10.3499 239.66 10.1899 239.09C10.0299 238.52 9.42994 238.19 8.85994 238.35Z" fill="#FAFAFF"/>
<path d="M43.4199 600.41C39.6799 598.98 35.6599 598.45 31.6999 598.83C29.1099 592.39 23.9699 586.99 16.9899 584.33C4.18987 579.44 -10.1101 585.46 -15.7201 597.76L-21.6001 595.51L-22.1801 597.02C-28.1701 612.7 -25.3501 630.19 -14.8901 643.2L-18.1201 651.66L26.0899 668.56L29.3199 660.11C45.8099 657.41 59.5299 646.3 65.5499 630.54L66.1299 629.03L59.9299 626.66C60.8899 615.23 54.2499 604.54 43.4199 600.41ZM42.2699 603.43C51.4399 606.93 57.1999 615.82 56.7899 625.46L51.2999 623.36C50.8399 616.71 46.5899 610.92 40.3199 608.53C38.1699 607.71 35.8699 607.35 33.5799 607.43C33.4999 605.58 33.2099 603.76 32.7499 602C35.9699 601.79 39.2299 602.27 42.2699 603.43ZM32.4099 616.14C32.9799 614.33 33.3399 612.5 33.4999 610.67C35.4199 610.57 37.3599 610.86 39.1699 611.55C43.7699 613.31 47.0299 617.31 47.8899 622.05L32.4099 616.14ZM15.8399 587.35C26.9699 591.6 32.7799 603.75 29.3899 614.99L23.9999 612.93C26.2799 604.67 21.9399 595.86 13.7799 592.74C5.61986 589.62 -3.49014 593.3 -7.30014 600.97L-12.6901 598.91C-7.73013 588.27 4.70986 583.09 15.8399 587.35ZM15.7999 609.79C16.4199 606.05 14.3499 602.26 10.6799 600.85C7.00986 599.45 2.92986 600.89 0.899864 604.09L-4.25014 602.12C-1.09014 596.12 6.13986 593.27 12.6299 595.75C19.1199 598.23 22.6099 605.18 20.9599 611.75L15.7999 609.79ZM12.6499 608.59L4.04986 605.3C5.35986 603.76 7.52986 603.12 9.51986 603.88C11.5099 604.64 12.6999 606.57 12.6499 608.59ZM-13.9401 649.79L-11.8801 644.4L26.2299 658.96L26.2399 659.08L24.2199 664.36L-13.9401 649.79ZM29.5699 656.78L-12.8701 640.56C-19.0801 632.55 -22.2101 622.8 -22.0201 612.94L54.8199 642.3C48.3999 649.8 39.5599 654.95 29.5699 656.78ZM56.9399 639.64L-21.8001 609.55C-21.4701 606.23 -20.7901 602.93 -19.6901 599.7L61.9299 630.89C60.5899 634.04 58.8999 636.96 56.9399 639.64Z" fill="#FAFAFF"/>
<path d="M283.96 541.08C280.04 541.92 276.38 543.67 273.27 546.15C267.58 542.17 260.34 540.44 253.03 542.01C239.64 544.89 230.93 557.73 232.94 571.1L226.79 572.42L227.13 574C230.66 590.41 242.56 603.54 258.42 608.74L260.32 617.6L306.6 607.65L304.7 598.81C317.04 587.55 322.49 570.76 318.95 554.27L318.61 552.69L312.13 554.08C306.68 543.98 295.28 538.65 283.96 541.08ZM284.64 544.25C294.24 542.19 303.91 546.49 308.83 554.8L303.08 556.04C299.06 550.71 292.35 548.18 285.79 549.59C283.54 550.07 281.41 551.03 279.54 552.34C278.47 550.83 277.23 549.47 275.88 548.24C278.46 546.3 281.45 544.93 284.64 544.25ZM283.3 560.28C282.79 558.45 282.09 556.72 281.23 555.11C282.79 553.98 284.57 553.16 286.46 552.75C291.27 551.72 296.19 553.29 299.49 556.8L283.3 560.28ZM253.71 545.18C265.36 542.68 276.86 549.69 280.14 560.96L274.5 562.17C271.91 554.01 263.47 548.98 254.92 550.81C246.38 552.65 240.75 560.7 241.74 569.21L236.1 570.42C234.46 558.8 242.06 547.68 253.71 545.18ZM265.92 564.01C264.4 560.54 260.6 558.48 256.75 559.31C252.9 560.14 250.28 563.57 250.32 567.36L244.93 568.52C244.3 561.77 248.81 555.44 255.6 553.98C262.39 552.52 269.1 556.44 271.31 562.85L265.92 564.01ZM262.62 564.72L253.62 566.66C253.88 564.66 255.35 562.93 257.43 562.48C259.51 562.03 261.56 563 262.62 564.72ZM262.8 613.76L261.59 608.12L301.48 599.55L301.56 599.65L302.75 605.18L262.8 613.76ZM303.08 595.89L258.67 605.44C249.1 602.11 241.15 595.65 235.94 587.27L316.36 569.99C315.06 579.77 310.46 588.92 303.08 595.89ZM316.68 566.6L234.27 584.31C232.74 581.35 231.51 578.21 230.67 574.9L316.09 556.54C316.68 559.91 316.86 563.28 316.68 566.6Z" fill="#FAFAFF"/>
<path d="M192.08 732.82C188.16 733.66 184.5 735.41 181.39 737.89C175.7 733.91 168.46 732.18 161.15 733.75C147.76 736.63 139.05 749.47 141.06 762.84L134.91 764.16L135.25 765.74C138.78 782.15 150.68 795.28 166.54 800.48L168.44 809.34L214.72 799.39L212.82 790.55C225.16 779.29 230.61 762.5 227.07 746.01L226.73 744.43L220.25 745.82C214.81 735.72 203.41 730.38 192.08 732.82ZM192.76 735.98C202.36 733.92 212.03 738.22 216.95 746.53L211.2 747.77C207.18 742.44 200.47 739.91 193.91 741.32C191.66 741.8 189.53 742.76 187.66 744.07C186.59 742.56 185.35 741.2 184 739.97C186.59 738.04 189.58 736.67 192.76 735.98ZM191.43 752.02C190.92 750.19 190.22 748.46 189.36 746.85C190.92 745.72 192.7 744.9 194.59 744.49C199.4 743.46 204.32 745.03 207.62 748.54L191.43 752.02ZM161.84 736.92C173.49 734.42 184.99 741.43 188.27 752.7L182.63 753.91C180.04 745.75 171.6 740.72 163.05 742.55C154.51 744.39 148.88 752.44 149.87 760.95L144.23 762.16C142.59 750.54 150.19 739.42 161.84 736.92ZM174.04 755.75C172.52 752.28 168.72 750.22 164.87 751.05C161.02 751.88 158.4 755.31 158.44 759.1L153.05 760.26C152.42 753.51 156.93 747.18 163.72 745.72C170.51 744.26 177.22 748.18 179.43 754.59L174.04 755.75ZM170.75 756.46L161.75 758.4C162.01 756.4 163.48 754.67 165.56 754.22C167.64 753.77 169.69 754.74 170.75 756.46ZM170.93 805.49L169.72 799.85L209.61 791.28L209.69 791.38L210.88 796.91L170.93 805.49ZM211.21 787.63L166.8 797.18C157.23 793.85 149.28 787.39 144.07 779.01L224.49 761.73C223.19 771.51 218.59 780.65 211.21 787.63ZM224.8 758.34L142.39 776.05C140.86 773.09 139.63 769.95 138.79 766.64L224.21 748.28C224.81 751.65 224.98 755.02 224.8 758.34Z" fill="#FAFAFF"/>
<path d="M60.7598 118.13C56.8398 118.97 53.1798 120.72 50.0698 123.2C44.3798 119.22 37.1398 117.49 29.8298 119.06C16.4398 121.94 7.72985 134.78 9.73985 148.15L3.58984 149.47L3.92984 151.05C7.45984 167.46 19.3598 180.59 35.2198 185.79L37.1198 194.65L83.3998 184.7L81.4998 175.86C93.8398 164.6 99.2898 147.81 95.7498 131.32L95.4099 129.74L88.9298 131.13C83.4798 121.03 72.0898 115.7 60.7598 118.13ZM61.4398 121.3C71.0398 119.24 80.7099 123.54 85.6299 131.85L79.8798 133.09C75.8598 127.76 69.1498 125.23 62.5898 126.64C60.3398 127.12 58.2098 128.08 56.3398 129.39C55.2698 127.88 54.0298 126.52 52.6798 125.29C55.2698 123.36 58.2598 121.98 61.4398 121.3ZM60.1098 137.33C59.5998 135.5 58.8998 133.77 58.0398 132.16C59.5998 131.03 61.3798 130.21 63.2698 129.8C68.0798 128.77 72.9998 130.34 76.2999 133.85L60.1098 137.33ZM30.5098 122.23C42.1598 119.73 53.6598 126.74 56.9398 138.01L51.2998 139.22C48.7098 131.06 40.2698 126.03 31.7198 127.86C23.1798 129.7 17.5498 137.75 18.5398 146.26L12.8998 147.47C11.2598 135.85 18.8598 124.73 30.5098 122.23ZM42.7198 141.07C41.1998 137.6 37.3998 135.54 33.5498 136.37C29.6998 137.2 27.0798 140.63 27.1198 144.42L21.7298 145.58C21.0998 138.83 25.6098 132.5 32.3998 131.04C39.1898 129.58 45.8998 133.5 48.1098 139.91L42.7198 141.07ZM39.4198 141.78L30.4198 143.72C30.6798 141.72 32.1498 139.99 34.2298 139.54C36.3198 139.09 38.3698 140.05 39.4198 141.78ZM39.5998 190.81L38.3898 185.17L78.2798 176.6L78.3598 176.7L79.5499 182.23L39.5998 190.81ZM79.8798 172.94L35.4698 182.49C25.8998 179.16 17.9498 172.7 12.7398 164.32L93.1599 147.04C91.8598 156.83 87.2598 165.97 79.8798 172.94ZM93.4798 143.66L11.0698 161.37C9.53984 158.41 8.30984 155.27 7.46984 151.96L92.8898 133.6C93.4798 136.97 93.6598 140.34 93.4798 143.66Z" fill="#FAFAFF"/>
<path d="M336.61 526.04C336.43 528.02 337.46 529.89 339.23 530.8C341 531.71 343.12 531.46 344.62 530.15L347.2 527.92L348.06 527.17L412.7 471.35L413.93 470.29L416.51 468.06C418.02 466.76 418.57 464.7 417.93 462.82C417.29 460.94 415.59 459.64 413.6 459.53C412.61 459.47 410.76 459.37 409.99 458.77C409.13 458.1 408.59 456.32 408.06 454.61C407.3 452.12 406.51 449.55 404.35 448.46C402.14 447.35 399.58 448.27 397.11 449.16C395.52 449.73 393.72 450.37 392.71 450.1C391.69 449.82 390.51 448.4 389.38 447.02C387.71 445 385.99 442.92 383.55 442.74C381.11 442.56 379.1 444.38 377.16 446.13C375.84 447.33 374.47 448.56 373.42 448.69C372.39 448.82 370.7 447.92 369.21 447.12C366.89 445.88 364.49 444.6 362.14 445.38C359.84 446.14 358.69 448.57 357.57 450.92C356.8 452.54 355.99 454.22 355.06 454.76C354.18 455.26 352.3 455.08 350.64 454.92C348 454.67 345.28 454.4 343.38 456.04C341.49 457.67 341.35 460.41 341.22 463.06C341.14 464.73 341.04 466.62 340.42 467.41C339.75 468.27 337.97 468.81 336.26 469.34C333.77 470.1 331.2 470.89 330.11 473.05C329 475.26 329.92 477.82 330.81 480.29C331.38 481.88 332.02 483.68 331.75 484.69C331.47 485.71 330.05 486.89 328.67 488.02C326.65 489.69 324.57 491.41 324.39 493.85C324.21 496.29 326.02 498.3 327.78 500.24C328.98 501.56 330.21 502.93 330.34 503.99C330.47 505.03 329.57 506.71 328.77 508.2C327.53 510.52 326.25 512.92 327.03 515.27C327.79 517.57 330.22 518.73 332.57 519.84C334.19 520.61 335.87 521.41 336.41 522.35C336.86 523.2 336.69 525.05 336.61 526.04ZM347.56 523.34C333.97 506.3 336.17 481.34 352.81 466.98C369.44 452.61 394.46 454.07 409.34 469.99L347.56 523.34ZM339.83 526.33C340 524.38 340.1 522.35 339.19 520.75C338.15 518.92 336 517.9 333.92 516.91C332.27 516.12 330.39 515.23 330.06 514.25C329.72 513.22 330.71 511.36 331.58 509.72C332.65 507.71 333.76 505.64 333.5 503.59C333.25 501.52 331.66 499.77 330.13 498.07C328.89 496.7 327.49 495.15 327.57 494.09C327.65 493.03 329.26 491.7 330.69 490.52C332.45 489.06 334.28 487.56 334.83 485.55C335.38 483.56 334.58 481.34 333.82 479.2C333.19 477.45 332.48 475.47 332.97 474.5C333.43 473.57 335.42 472.96 337.17 472.43C339.37 471.76 341.64 471.06 342.94 469.4C344.2 467.79 344.31 465.46 344.42 463.21C344.51 461.34 344.62 459.21 345.46 458.48C346.3 457.75 348.42 457.95 350.29 458.14C352.53 458.36 354.85 458.58 356.63 457.57C358.46 456.53 359.48 454.38 360.47 452.3C361.26 450.65 362.14 448.77 363.13 448.44C364.16 448.1 366.02 449.09 367.66 449.96C369.67 451.03 371.74 452.14 373.79 451.88C375.86 451.63 377.62 450.04 379.31 448.51C380.68 447.27 382.23 445.87 383.29 445.95C384.35 446.03 385.68 447.64 386.86 449.06C388.32 450.82 389.82 452.65 391.83 453.2C393.82 453.75 396.04 452.96 398.18 452.19C399.93 451.56 401.91 450.85 402.88 451.34C403.81 451.81 404.42 453.79 404.95 455.54C405.62 457.74 406.32 460.01 407.98 461.31C409.43 462.44 411.45 462.64 413.4 462.75C414.42 462.81 414.77 463.6 414.85 463.85C414.93 464.09 415.14 464.93 414.38 465.6L411.77 467.85C395.72 450.58 368.67 448.97 350.68 464.5C332.69 480.03 330.35 507.03 345.1 525.42L342.49 527.67C341.72 528.33 340.92 528 340.69 527.89C340.48 527.8 339.74 527.34 339.83 526.33Z" fill="#FAFAFF"/>
<path d="M351.05 497.25C350.5 497.72 350.44 498.55 350.91 499.1C351.38 499.65 352.21 499.71 352.76 499.24C353.31 498.77 353.37 497.94 352.9 497.39C352.43 496.83 351.6 496.77 351.05 497.25Z" fill="#FAFAFF"/>
<path d="M361.92 478.08C361.37 478.55 361.31 479.38 361.78 479.93C362.25 480.48 363.08 480.54 363.63 480.07C364.18 479.6 364.24 478.77 363.77 478.22C363.3 477.67 362.47 477.61 361.92 478.08Z" fill="#FAFAFF"/>
<path d="M364.5 496.03C363.95 496.5 363.89 497.33 364.36 497.88C364.83 498.43 365.66 498.49 366.21 498.02C366.76 497.55 366.82 496.72 366.35 496.17C365.88 495.62 365.05 495.56 364.5 496.03Z" fill="#FAFAFF"/>
<path d="M309.83 208.04C309.86 210.03 311.07 211.79 312.93 212.51C314.78 213.23 316.86 212.76 318.23 211.31L320.57 208.83L321.35 208L379.92 145.84L381.03 144.66L383.36 142.18C384.72 140.73 385.07 138.63 384.24 136.82C383.41 135.01 381.58 133.9 379.59 133.99C378.6 134.04 376.75 134.12 375.92 133.6C375 133.02 374.28 131.31 373.58 129.66C372.57 127.26 371.52 124.78 369.25 123.92C366.94 123.04 364.49 124.22 362.11 125.36C360.59 126.09 358.86 126.91 357.83 126.74C356.78 126.56 355.47 125.27 354.2 124.02C352.34 122.19 350.41 120.29 347.96 120.36C345.52 120.43 343.7 122.44 341.95 124.39C340.76 125.72 339.52 127.08 338.49 127.32C337.47 127.55 335.7 126.83 334.14 126.19C331.7 125.2 329.18 124.17 326.93 125.18C324.72 126.17 323.82 128.71 322.95 131.16C322.35 132.86 321.72 134.61 320.84 135.24C320.01 135.83 318.12 135.84 316.45 135.85C313.8 135.87 311.06 135.89 309.35 137.71C307.63 139.53 307.78 142.27 307.92 144.91C308.01 146.58 308.11 148.46 307.57 149.32C306.99 150.24 305.28 150.96 303.63 151.66C301.23 152.67 298.75 153.72 297.9 155.99C297.02 158.3 298.2 160.75 299.34 163.13C300.07 164.65 300.89 166.38 300.72 167.41C300.54 168.46 299.25 169.77 298 171.04C296.16 172.9 294.26 174.83 294.34 177.28C294.41 179.73 296.42 181.54 298.37 183.29C299.69 184.48 301.06 185.72 301.3 186.75C301.53 187.77 300.81 189.54 300.17 191.1C299.18 193.54 298.15 196.05 299.16 198.31C300.15 200.52 302.69 201.42 305.14 202.29C306.83 202.89 308.59 203.51 309.22 204.4C309.8 205.19 309.82 207.04 309.83 208.04ZM320.45 204.23C305.19 188.68 304.81 163.62 319.89 147.63C334.96 131.63 359.99 130.51 376.43 144.82L320.45 204.23ZM313.07 207.99C313.04 206.03 312.93 204 311.86 202.51C310.64 200.8 308.4 200 306.23 199.23C304.5 198.62 302.55 197.93 302.12 196.98C301.68 195.99 302.47 194.04 303.17 192.32C304.03 190.21 304.91 188.04 304.45 186.02C303.98 183.99 302.23 182.41 300.53 180.87C299.16 179.63 297.61 178.23 297.57 177.17C297.54 176.11 299.01 174.62 300.3 173.3C301.9 171.67 303.56 169.99 303.91 167.93C304.25 165.89 303.23 163.77 302.25 161.72C301.45 160.04 300.54 158.14 300.92 157.13C301.29 156.16 303.2 155.35 304.89 154.64C307.01 153.75 309.19 152.82 310.32 151.04C311.4 149.31 311.28 146.98 311.16 144.73C311.06 142.86 310.95 140.73 311.71 139.92C312.48 139.11 314.6 139.09 316.48 139.08C318.73 139.06 321.07 139.05 322.73 137.86C324.44 136.64 325.24 134.4 326.01 132.23C326.62 130.51 327.31 128.55 328.26 128.12C329.25 127.68 331.2 128.47 332.92 129.17C335.03 130.03 337.2 130.91 339.22 130.45C341.25 129.98 342.84 128.22 344.36 126.53C345.6 125.16 347 123.61 348.06 123.57C349.12 123.54 350.61 125.01 351.93 126.3C353.56 127.9 355.24 129.56 357.3 129.91C359.34 130.25 361.46 129.24 363.51 128.25C365.19 127.45 367.09 126.54 368.1 126.92C369.07 127.29 369.88 129.2 370.59 130.89C371.48 133.01 372.41 135.2 374.2 136.32C375.76 137.3 377.79 137.29 379.74 137.2C380.76 137.15 381.19 137.91 381.29 138.14C381.4 138.37 381.69 139.19 381 139.93L378.64 142.44C360.91 126.91 333.83 128.08 317.53 145.38C301.23 162.68 301.68 189.78 318.24 206.55L315.88 209.06C315.19 209.8 314.35 209.55 314.12 209.46C313.87 209.4 313.08 209.01 313.07 207.99Z" fill="#FAFAFF"/>
<path d="M321.25 177.92C320.75 178.45 320.78 179.28 321.31 179.77C321.84 180.27 322.67 180.24 323.16 179.71C323.66 179.18 323.63 178.35 323.1 177.86C322.57 177.36 321.74 177.39 321.25 177.92Z" fill="#FAFAFF"/>
<path d="M350.65 145.31C350.15 145.84 350.18 146.67 350.71 147.16C351.24 147.66 352.07 147.63 352.56 147.1C353.06 146.57 353.03 145.74 352.5 145.25C351.98 144.76 351.15 144.79 350.65 145.31Z" fill="#FAFAFF"/>
<path d="M330.1 157.74C329.6 158.27 329.63 159.1 330.16 159.59C330.69 160.09 331.52 160.06 332.01 159.53C332.51 159 332.48 158.17 331.95 157.68C331.42 157.19 330.59 157.21 330.1 157.74Z" fill="#FAFAFF"/>
<path d="M334.5 175.33C334 175.86 334.03 176.69 334.56 177.18C335.09 177.68 335.92 177.65 336.41 177.12C336.91 176.59 336.88 175.76 336.35 175.27C335.83 174.77 335 174.8 334.5 175.33Z" fill="#FAFAFF"/>
<path d="M348.03 159.23C347.53 159.76 347.56 160.59 348.09 161.08C348.62 161.58 349.45 161.55 349.94 161.02C350.44 160.49 350.41 159.66 349.88 159.17C349.36 158.68 348.53 158.7 348.03 159.23Z" fill="#FAFAFF"/>
<path d="M327.56 74.65C326.93 76.54 327.5 78.6 329.02 79.89C330.53 81.18 332.65 81.42 334.42 80.5L337.44 78.93L338.45 78.4L414.19 38.93L415.63 38.18L418.65 36.61C420.41 35.69 421.43 33.82 421.24 31.84C421.05 29.86 419.69 28.21 417.78 27.65C416.83 27.37 415.05 26.84 414.44 26.08C413.76 25.23 413.64 23.38 413.52 21.58C413.35 18.98 413.18 16.3 411.32 14.74C409.43 13.15 406.72 13.46 404.11 13.75C402.43 13.94 400.53 14.15 399.62 13.65C398.69 13.14 397.87 11.49 397.08 9.89004C395.92 7.54004 394.72 5.12004 392.39 4.38004C390.06 3.64004 387.68 4.95004 385.39 6.21004C383.83 7.07004 382.21 7.96004 381.16 7.84004C380.12 7.73004 378.69 6.46004 377.42 5.35004C375.44 3.61004 373.4 1.81004 370.94 2.03004C368.52 2.24004 366.84 4.34004 365.22 6.37004C364.1 7.77004 362.93 9.22004 361.89 9.53004C360.92 9.81004 359.13 9.21004 357.55 8.67004C355.04 7.82004 352.45 6.93004 350.23 8.09004C348.01 9.25004 347.25 11.88 346.51 14.42C346.05 16.02 345.52 17.84 344.73 18.47C343.88 19.15 342.03 19.27 340.23 19.39C337.63 19.56 334.95 19.73 333.39 21.59C331.8 23.48 332.11 26.19 332.4 28.8C332.59 30.48 332.8 32.38 332.3 33.29C331.79 34.22 330.14 35.04 328.54 35.83C326.19 36.99 323.77 38.18 323.03 40.52C322.3 42.85 323.6 45.22 324.86 47.52C325.72 49.08 326.61 50.7 326.49 51.75C326.38 52.79 325.11 54.22 324 55.49C322.26 57.46 320.46 59.51 320.68 61.97C320.89 64.39 322.99 66.07 325.02 67.69C326.42 68.81 327.87 69.98 328.18 71.02C328.46 71.94 327.87 73.7 327.56 74.65ZM338.83 74.54C329.52 54.84 337.4 31.05 356.9 20.89C376.39 10.73 400.4 17.9 411.22 36.81L338.83 74.54ZM330.63 75.67C331.25 73.81 331.81 71.86 331.29 70.09C330.7 68.07 328.84 66.58 327.05 65.15C325.62 64 324 62.71 323.91 61.67C323.82 60.59 325.21 59.01 326.43 57.62C327.93 55.91 329.49 54.15 329.71 52.09C329.94 50.02 328.8 47.95 327.7 45.94C326.81 44.32 325.8 42.49 326.12 41.48C326.44 40.47 328.31 39.54 329.97 38.72C332.02 37.71 334.14 36.66 335.14 34.83C336.13 33.02 335.87 30.68 335.61 28.42C335.4 26.57 335.17 24.48 335.86 23.65C336.53 22.85 338.6 22.72 340.43 22.6C342.72 22.45 345.09 22.29 346.74 20.98C348.33 19.7 348.98 17.47 349.61 15.3C350.13 13.5 350.72 11.46 351.71 10.94C352.7 10.42 354.71 11.11 356.49 11.71C358.62 12.44 360.83 13.19 362.79 12.61C364.81 12.02 366.3 10.16 367.73 8.37004C368.87 6.94004 370.17 5.32004 371.21 5.23004C372.29 5.14004 373.87 6.53004 375.27 7.75004C376.98 9.25004 378.74 10.81 380.79 11.03C382.86 11.26 384.94 10.12 386.94 9.02004C388.56 8.13004 390.39 7.12004 391.4 7.44004C392.41 7.76004 393.34 9.64004 394.16 11.29C395.17 13.34 396.22 15.46 398.05 16.46C399.86 17.45 402.2 17.19 404.46 16.94C406.31 16.73 408.4 16.5 409.23 17.19C410.03 17.86 410.16 19.93 410.28 21.76C410.43 24.05 410.58 26.43 411.9 28.07C413.05 29.5 414.97 30.17 416.85 30.72C417.83 31.01 417.98 31.87 418.01 32.12C418.03 32.37 418.05 33.24 417.15 33.71L414.09 35.3C402.44 14.8 376.48 7.01004 355.41 18C334.33 29 325.84 54.74 335.97 76.03L332.91 77.62C332.01 78.09 331.31 77.58 331.11 77.42C330.92 77.25 330.31 76.63 330.63 75.67Z" fill="#FAFAFF"/>
<path d="M348.23 49.9501C347.59 50.2801 347.34 51.0801 347.67 51.7201C348 52.3601 348.8 52.6101 349.44 52.2801C350.08 51.9501 350.33 51.1501 350 50.5101C349.67 49.8601 348.87 49.6101 348.23 49.9501Z" fill="#FAFAFF"/>
<path d="M363.22 33.8001C362.58 34.1301 362.33 34.9301 362.66 35.5701C362.99 36.2101 363.79 36.4601 364.43 36.1301C365.07 35.8001 365.32 35.0001 364.99 34.3601C364.66 33.7201 363.86 33.4601 363.22 33.8001Z" fill="#FAFAFF"/>
<path d="M361.6 51.8601C360.96 52.1901 360.71 52.9901 361.04 53.6301C361.37 54.2701 362.17 54.5201 362.81 54.1901C363.45 53.8601 363.7 53.0601 363.37 52.4201C363.04 51.7701 362.24 51.5201 361.6 51.8601Z" fill="#FAFAFF"/>
<path d="M353.06 616.21C352.94 615.4 352.19 614.83 351.38 614.95C350.57 615.07 350 615.82 350.12 616.63C350.24 617.44 350.99 618.01 351.8 617.89C352.61 617.78 353.18 617.03 353.06 616.21Z" fill="#FAFAFF"/>
<path d="M354.93 630.26C354.12 630.38 353.55 631.13 353.67 631.94C353.79 632.75 354.54 633.32 355.35 633.2C356.16 633.08 356.73 632.33 356.61 631.52C356.49 630.71 355.74 630.14 354.93 630.26Z" fill="#FAFAFF"/>
<path d="M367.56 619.46C366.75 619.58 366.18 620.33 366.3 621.14C366.42 621.95 367.17 622.52 367.98 622.4C368.79 622.28 369.36 621.53 369.24 620.72C369.13 619.91 368.38 619.35 367.56 619.46Z" fill="#FAFAFF"/>
<path d="M362.42 649.36C361.61 649.48 361.04 650.23 361.16 651.04C361.28 651.85 362.03 652.42 362.84 652.3C363.65 652.18 364.22 651.43 364.1 650.62C363.98 649.81 363.23 649.25 362.42 649.36Z" fill="#FAFAFF"/>
<path d="M349.35 643.73C348.54 643.85 347.97 644.6 348.09 645.41C348.21 646.22 348.96 646.79 349.77 646.67C350.58 646.55 351.15 645.8 351.03 644.99C350.91 644.18 350.16 643.61 349.35 643.73Z" fill="#FAFAFF"/>
<path d="M374.5 640.42C375.31 640.3 375.88 639.55 375.76 638.74C375.64 637.93 374.89 637.36 374.08 637.48C373.27 637.6 372.7 638.35 372.82 639.16C372.94 639.97 373.69 640.53 374.5 640.42Z" fill="#FAFAFF"/>
<path d="M355.01 599.71C342.08 601.55 333.57 617.13 336.04 634.45C337.72 646.23 344.15 656.26 352.63 660.52C352.29 661.56 352.19 662.67 352.34 663.75C352.82 667.13 355.56 669.61 358.81 669.95L360.5 681.81C358.17 683.12 356.83 685.74 357.22 688.48C357.73 692.09 361.09 694.61 364.7 694.09C366.01 693.9 367.19 693.35 368.15 692.48C369.31 693.04 370.61 693.24 371.91 693.06C375.52 692.55 378.04 689.19 377.52 685.58C377.13 682.84 375.11 680.71 372.51 680.09L370.81 668.15C373.68 666.85 375.5 663.79 375.04 660.51C374.9 659.49 374.54 658.54 373.99 657.68C381.13 651.26 384.62 639.74 382.91 627.77C380.45 610.46 367.93 597.87 355.01 599.71ZM374.32 686.03C374.58 687.87 373.3 689.58 371.46 689.85C370.54 689.98 369.62 689.72 368.87 689.12L367.52 688.03L366.53 689.46C365.98 690.24 365.17 690.75 364.25 690.88C362.41 691.14 360.7 689.86 360.43 688.02C360.2 686.38 361.18 684.84 362.76 684.34L364.07 683.93L362.02 669.56C362.95 669.22 363.81 668.71 364.53 668.03C365.5 668.53 366.56 668.8 367.64 668.83L369.68 683.14L371.05 683.17C372.71 683.19 374.09 684.4 374.32 686.03ZM370.75 656.18L369.25 657.33L370.61 658.63C371.29 659.28 371.71 660.08 371.83 660.97C372.14 663.18 370.6 665.23 368.39 665.55C367.26 665.71 366.15 665.39 365.25 664.64L363.88 663.5L362.88 664.98C362.22 665.95 361.24 666.57 360.12 666.73C357.91 667.04 355.86 665.5 355.54 663.29C355.37 662.11 355.77 661.17 356.14 660.58L357.16 658.95L355.38 658.22C347.19 654.87 340.86 645.36 339.24 633.99C337.03 618.44 344.3 604.5 355.46 602.91C366.62 601.32 377.5 612.68 379.71 628.22C381.36 639.76 377.84 650.73 370.75 656.18Z" fill="#FAFAFF"/>
<path d="M33.1499 52.68C32.4999 52.19 31.5599 52.32 31.0699 52.97C30.5799 53.62 30.7099 54.56 31.3599 55.05C32.0099 55.54 32.9499 55.41 33.4399 54.76C33.9399 54.1 33.8099 53.17 33.1499 52.68Z" fill="#FAFAFF"/>
<path d="M44.3899 61.2999C43.8999 61.9499 44.0299 62.8899 44.6799 63.3799C45.3299 63.8699 46.2699 63.7399 46.7599 63.0899C47.2499 62.4399 47.1199 61.4999 46.4699 61.0099C45.8099 60.5199 44.8799 60.6499 44.3899 61.2999Z" fill="#FAFAFF"/>
<path d="M45.71 44.7399C45.22 45.3899 45.35 46.3299 46 46.8199C46.65 47.3099 47.59 47.1799 48.08 46.5299C48.57 45.8799 48.44 44.9399 47.79 44.4499C47.14 43.9499 46.21 44.0799 45.71 44.7399Z" fill="#FAFAFF"/>
<path d="M63.18 69.5401C62.69 70.1901 62.82 71.1301 63.47 71.6201C64.12 72.1101 65.06 71.9801 65.55 71.3301C66.04 70.6801 65.91 69.7401 65.26 69.2501C64.61 68.7601 63.68 68.8901 63.18 69.5401Z" fill="#FAFAFF"/>
<path d="M49.95 74.7799C49.46 75.4299 49.59 76.3699 50.24 76.8599C50.89 77.3499 51.83 77.2199 52.32 76.5699C52.81 75.9199 52.68 74.9799 52.03 74.4899C51.37 73.9899 50.44 74.1299 49.95 74.7799Z" fill="#FAFAFF"/>
<path d="M65.4199 54.68C65.9099 54.03 65.7799 53.09 65.1299 52.6C64.4799 52.11 63.5399 52.24 63.0499 52.89C62.5599 53.54 62.6899 54.48 63.3399 54.97C63.9999 55.46 64.9299 55.33 65.4199 54.68Z" fill="#FAFAFF"/>
<path d="M22.8699 39.62C15.0199 50.05 19.9999 67.09 33.9699 77.61C43.4799 84.77 55.1099 87.32 64.1299 84.36C64.6299 85.34 65.3299 86.19 66.2099 86.85C68.9299 88.9 72.6299 88.73 75.1699 86.67L84.7399 93.87C84.0199 96.44 84.9199 99.24 87.1299 100.9C90.0399 103.09 94.1999 102.51 96.3899 99.59C97.1799 98.54 97.6299 97.3 97.6999 96.02C98.9199 95.6 99.9799 94.83 100.77 93.77C102.96 90.86 102.38 86.7 99.4599 84.51C97.2499 82.85 94.3199 82.76 92.0399 84.16L82.3999 76.91C83.5199 73.96 82.6499 70.51 79.9999 68.52C79.1799 67.9 78.2499 67.48 77.2599 67.26C77.7899 57.67 72.1199 47.06 62.4499 39.78C48.4799 29.26 30.7299 29.19 22.8699 39.62ZM97.5099 87.1C98.9999 88.22 99.2999 90.34 98.1799 91.82C97.6199 92.57 96.7899 93.03 95.8399 93.13L94.1099 93.31L94.4099 95.02C94.5799 95.96 94.3599 96.89 93.7999 97.64C92.6799 99.13 90.5599 99.43 89.0799 98.31C87.7599 97.32 87.3599 95.53 88.1299 94.06L88.7699 92.84L77.1699 84.11C77.5899 83.22 77.8299 82.25 77.8599 81.25C78.8999 80.92 79.8399 80.36 80.6299 79.62L92.1799 88.31L93.1699 87.36C94.3599 86.22 96.1899 86.11 97.5099 87.1ZM73.8899 68.49L73.6399 70.36L75.5299 70.32C76.4599 70.3 77.3299 70.57 78.0499 71.11C79.8299 72.45 80.1899 75 78.8499 76.78C78.1699 77.69 77.1499 78.25 75.9799 78.36L74.1999 78.52L74.5299 80.27C74.7499 81.42 74.4899 82.55 73.8099 83.46C72.4699 85.24 69.9199 85.6 68.1399 84.26C67.1899 83.54 66.7999 82.59 66.6499 81.92L66.2199 80.04L64.4399 80.78C56.2799 84.19 45.0699 81.93 35.8999 75.02C23.3499 65.58 18.6599 50.57 25.4399 41.56C32.2199 32.55 47.9399 32.91 60.4899 42.36C69.8099 49.37 75.0699 59.62 73.8899 68.49Z" fill="#FAFAFF"/>
<path d="M23.1698 521.82C23.8298 522.31 24.7598 522.17 25.2498 521.51C25.7398 520.85 25.5998 519.92 24.9398 519.43C24.2798 518.94 23.3498 519.08 22.8598 519.74C22.3698 520.4 22.5098 521.33 23.1698 521.82Z" fill="#FAFAFF"/>
<path d="M11.8699 513.26C12.3599 512.6 12.2199 511.67 11.5599 511.18C10.8999 510.69 9.96991 510.83 9.47991 511.49C8.98991 512.15 9.12991 513.08 9.78991 513.57C10.4599 514.05 11.3799 513.92 11.8699 513.26Z" fill="#FAFAFF"/>
<path d="M10.6497 529.83C11.1397 529.17 10.9997 528.24 10.3397 527.75C9.6797 527.26 8.7497 527.4 8.2597 528.06C7.7697 528.72 7.9097 529.65 8.5697 530.14C9.2297 530.63 10.1597 530.49 10.6497 529.83Z" fill="#FAFAFF"/>
<path d="M6.22977 499.82C6.71977 499.16 6.57977 498.23 5.91977 497.74C5.25977 497.25 4.32978 497.39 3.83978 498.05C3.34978 498.71 3.48978 499.64 4.14978 500.13C4.80978 500.61 5.73977 500.48 6.22977 499.82Z" fill="#FAFAFF"/>
<path d="M33.5298 534.81C41.3198 524.33 36.2298 507.32 22.1898 496.89C12.6398 489.79 0.989811 487.31 -8.01019 490.33C-8.51019 489.36 -9.23019 488.51 -10.1002 487.86C-12.8402 485.83 -16.5302 486.02 -19.0602 488.1L-28.6702 480.96C-27.9702 478.38 -28.8802 475.59 -31.1002 473.94C-34.0302 471.77 -38.1802 472.38 -40.3502 475.3C-41.1402 476.36 -41.5702 477.59 -41.6402 478.88C-42.8602 479.31 -43.9102 480.09 -44.7002 481.15C-46.8702 484.08 -46.2602 488.23 -43.3402 490.4C-41.1202 492.05 -38.1802 492.12 -35.9202 490.7L-26.2402 497.89C-27.3402 500.85 -26.4502 504.29 -23.7902 506.27C-22.9702 506.88 -22.0402 507.3 -21.0402 507.52C-21.5102 517.11 -15.7702 527.69 -6.06019 534.91C7.97981 545.33 25.7398 545.29 33.5298 534.81ZM-41.4002 487.79C-42.8902 486.68 -43.2102 484.56 -42.1002 483.07C-41.5402 482.32 -40.7102 481.85 -39.7602 481.74L-38.0302 481.55L-38.3402 479.84C-38.5102 478.9 -38.3002 477.97 -37.7402 477.22C-36.6302 475.73 -34.5102 475.41 -33.0202 476.52C-31.6902 477.5 -31.2802 479.29 -32.0502 480.76L-32.6902 482L-21.0402 490.66C-21.4502 491.56 -21.6902 492.53 -21.7102 493.52C-22.7402 493.86 -23.6802 494.43 -24.4702 495.17L-36.0702 486.55L-37.0602 487.51C-38.2502 488.66 -40.0802 488.78 -41.4002 487.79ZM-17.6802 506.26L-17.4402 504.39L-19.3302 504.44C-20.2602 504.47 -21.1402 504.2 -21.8502 503.67C-23.6402 502.34 -24.0202 499.8 -22.6802 498.01C-22.0002 497.1 -20.9902 496.53 -19.8202 496.42L-18.0402 496.24L-18.3902 494.49C-18.6202 493.34 -18.3702 492.21 -17.6902 491.3C-16.3602 489.51 -13.8202 489.13 -12.0302 490.47C-11.0702 491.18 -10.6802 492.13 -10.5302 492.8L-10.0902 494.67L-8.32019 493.92C-0.180191 490.46 11.0398 492.65 20.2598 499.5C32.8598 508.87 37.6498 523.85 30.9298 532.89C24.2098 541.94 8.47981 541.68 -4.12019 532.31C-13.4802 525.35 -18.8002 515.13 -17.6802 506.26Z" fill="#FAFAFF"/>
<path d="M118.197 336.928C118.747 336.318 118.687 335.378 118.077 334.828C117.467 334.278 116.527 334.338 115.977 334.948C115.427 335.558 115.487 336.498 116.097 337.048C116.717 337.588 117.657 337.538 118.197 336.928Z" fill="#FAFAFF"/>
<path d="M108.667 347.408C108.057 346.858 107.117 346.918 106.567 347.528C106.017 348.138 106.077 349.078 106.687 349.628C107.297 350.178 108.237 350.118 108.787 349.508C109.337 348.898 109.277 347.958 108.667 347.408Z" fill="#FAFAFF"/>
<path d="M125.067 350.098C124.457 349.548 123.517 349.608 122.967 350.218C122.417 350.828 122.477 351.768 123.087 352.318C123.697 352.868 124.637 352.808 125.187 352.198C125.737 351.588 125.677 350.648 125.067 350.098Z" fill="#FAFAFF"/>
<path d="M98.9071 365.458C98.2971 364.908 97.3571 364.968 96.8071 365.578C96.2571 366.188 96.3171 367.128 96.9271 367.678C97.5371 368.228 98.4771 368.168 99.0271 367.558C99.5671 366.938 99.5171 365.998 98.9071 365.458Z" fill="#FAFAFF"/>
<path d="M94.7769 351.838C94.1669 351.288 93.2269 351.348 92.6769 351.958C92.1269 352.568 92.1869 353.508 92.7969 354.058C93.4069 354.608 94.3469 354.548 94.8969 353.938C95.4469 353.318 95.3869 352.378 94.7769 351.838Z" fill="#FAFAFF"/>
<path d="M113.537 368.918C114.147 369.468 115.087 369.408 115.637 368.798C116.187 368.188 116.127 367.248 115.517 366.698C114.907 366.148 113.967 366.208 113.417 366.818C112.867 367.438 112.917 368.368 113.537 368.918Z" fill="#FAFAFF"/>
<path d="M132.067 327.758C122.317 319.068 104.927 322.618 93.287 335.668C85.367 344.548 81.857 355.928 84.067 365.158C83.057 365.568 82.147 366.208 81.417 367.018C79.147 369.558 79.017 373.258 80.857 375.958L72.887 384.898C70.377 383.968 67.517 384.628 65.677 386.698C63.247 389.418 63.487 393.608 66.207 396.038C67.187 396.918 68.377 397.458 69.657 397.638C69.977 398.888 70.657 400.008 71.647 400.888C74.367 403.318 78.557 403.078 80.987 400.358C82.827 398.298 83.157 395.378 81.947 392.998L89.977 383.998C92.827 385.358 96.337 384.778 98.537 382.298C99.217 381.528 99.717 380.648 100.027 379.678C109.537 380.998 120.587 376.228 128.637 367.198C140.267 354.138 141.807 336.448 132.067 327.758ZM78.557 398.208C77.317 399.598 75.187 399.718 73.797 398.478C73.097 397.858 72.707 396.988 72.687 396.028L72.647 394.288L70.917 394.448C69.967 394.538 69.057 394.238 68.357 393.618C66.967 392.378 66.847 390.248 68.087 388.858C69.187 387.628 70.997 387.378 72.397 388.268L73.557 389.008L83.217 378.168C84.077 378.658 85.017 378.988 86.007 379.098C86.247 380.158 86.737 381.148 87.407 381.988L77.787 392.778L78.647 393.848C79.697 395.138 79.657 396.968 78.557 398.208ZM99.067 376.218L97.227 375.818L97.107 377.698C97.047 378.628 96.707 379.478 96.117 380.138C94.627 381.808 92.067 381.948 90.397 380.468C89.547 379.708 89.077 378.648 89.067 377.478L89.047 375.698L87.277 375.888C86.117 376.008 85.007 375.658 84.157 374.908C82.487 373.418 82.347 370.858 83.827 369.188C84.617 368.298 85.597 367.998 86.287 367.898L88.197 367.628L87.607 365.798C84.887 357.378 88.067 346.398 95.707 337.828C106.157 326.108 121.507 322.678 129.917 330.178C138.327 337.678 136.667 353.318 126.217 365.038C118.457 373.738 107.807 378.118 99.067 376.218Z" fill="#FAFAFF"/>
<path d="M193.071 463.518C192.666 462.803 191.755 462.563 191.04 462.968C190.326 463.373 190.086 464.283 190.49 464.998C190.895 465.713 191.806 465.953 192.521 465.548C193.229 465.131 193.479 464.223 193.071 463.518Z" fill="#FAFAFF"/>
<path d="M200 475.872C199.285 476.277 199.045 477.188 199.45 477.903C199.855 478.617 200.765 478.858 201.48 478.453C202.195 478.048 202.435 477.137 202.03 476.423C201.625 475.708 200.715 475.468 200 475.872Z" fill="#FAFAFF"/>
<path d="M207.737 461.164C207.022 461.569 206.782 462.48 207.187 463.194C207.592 463.909 208.503 464.149 209.217 463.744C209.932 463.34 210.172 462.429 209.767 461.714C209.362 461 208.452 460.759 207.737 461.164Z" fill="#FAFAFF"/>
<path d="M214.039 490.838C213.324 491.243 213.084 492.154 213.488 492.869C213.893 493.583 214.804 493.824 215.519 493.419C216.233 493.014 216.474 492.103 216.069 491.389C215.651 490.68 214.744 490.43 214.039 490.838Z" fill="#FAFAFF"/>
<path d="M199.811 490.451C199.097 490.855 198.857 491.766 199.261 492.481C199.666 493.195 200.577 493.436 201.292 493.031C202.006 492.626 202.247 491.715 201.842 491.001C201.427 490.283 200.517 490.043 199.811 490.451Z" fill="#FAFAFF"/>
<path d="M221.947 478.053C222.661 477.648 222.901 476.737 222.497 476.023C222.092 475.308 221.181 475.068 220.466 475.472C219.752 475.877 219.511 476.788 219.916 477.503C220.331 478.221 221.229 478.467 221.947 478.053Z" fill="#FAFAFF"/>
<path d="M188.756 447.46C177.429 453.963 175.299 471.583 184 486.752C189.92 497.073 199.607 504.001 209.062 504.822C209.132 505.91 209.451 506.976 209.989 507.925C211.681 510.881 215.15 512.174 218.293 511.282L224.255 521.67C222.579 523.757 222.301 526.679 223.683 529.079C225.495 532.245 229.546 533.342 232.712 531.529C233.856 530.878 234.745 529.92 235.32 528.762C236.607 528.854 237.885 528.563 239.033 527.902C242.198 526.089 243.295 522.039 241.483 518.873C240.11 516.476 237.444 515.24 234.804 515.636L228.804 505.172C230.996 502.898 231.555 499.385 229.898 496.514C229.382 495.625 228.705 494.872 227.883 494.272C232.142 485.667 231.11 473.676 225.089 463.184C216.375 448.021 200.08 440.967 188.756 447.46ZM238.675 520.499C239.601 522.115 239.042 524.173 237.426 525.1C236.617 525.568 235.668 525.663 234.751 525.379L233.087 524.866L232.692 526.558C232.477 527.488 231.905 528.256 231.095 528.724C229.48 529.651 227.421 529.092 226.494 527.476C225.675 526.043 226.01 524.247 227.297 523.2L228.366 522.334L221.136 509.742C221.873 509.081 222.483 508.294 222.9 507.389C223.982 507.497 225.076 507.345 226.085 506.975L233.28 519.513L234.567 519.035C236.123 518.447 237.846 519.063 238.675 520.499ZM224.297 494.089L223.336 495.708L225.082 496.416C225.945 496.767 226.644 497.358 227.083 498.127C228.197 500.068 227.52 502.541 225.588 503.658C224.598 504.224 223.444 504.334 222.331 503.974L220.636 503.43L220.257 505.169C220.004 506.308 219.321 507.25 218.34 507.82C216.399 508.933 213.926 508.256 212.809 506.324C212.215 505.293 212.24 504.269 212.363 503.583L212.711 501.685L210.788 501.666C201.94 501.585 192.529 495.096 186.814 485.139C178.999 471.52 180.598 455.872 190.372 450.265C200.146 444.658 214.459 451.177 222.274 464.797C228.075 474.909 228.863 486.398 224.297 494.089Z" fill="#FAFAFF"/>
<path d="M194.28 269.09C195.13 268.87 195.79 268.36 196.18 267.61C197 266.05 198.82 262.15 197.94 259.65C197.64 258.79 197.05 258.15 196.24 257.8C194.47 257.03 191.33 258.2 188.87 259.4C188.71 258.87 188.53 258.34 188.3 257.82C185.4 251.33 177.76 248.41 171.27 251.31C168.94 252.35 160.14 252.78 147.83 247.45C136.52 242.55 130.3 236.11 129.04 233.19C126.32 226.89 119.15 223.88 112.78 226.21C112.02 223.43 110.6 219.42 108.54 218.53C107.73 218.18 106.86 218.19 106.03 218.56C103.61 219.63 102.01 223.62 101.43 225.29C101.15 226.09 101.23 226.92 101.65 227.69C102.31 228.9 103.83 229.81 105.32 230.46C105.77 230.65 106.2 230.81 106.62 230.96C104.17 234.5 103.53 239.18 105.36 243.41C109.94 254 121.98 264.36 137.58 271.11C154.3 278.34 170.82 279.74 181.78 274.85C185.01 273.41 187.35 270.8 188.53 267.74C188.91 267.94 189.31 268.13 189.74 268.32C191.24 268.96 192.95 269.44 194.28 269.09ZM194.88 260.69C195.15 261.18 194.71 263.41 193.38 265.97C192.74 266.07 190.99 265.4 189.33 264.46C189.39 263.89 189.43 263.32 189.42 262.75C191.87 261.49 194.28 260.59 194.88 260.69ZM104.55 226.21C105.51 223.48 106.83 221.64 107.24 221.48C107.9 221.9 109.07 224.75 109.84 227.72C109.57 227.91 109.32 228.11 109.07 228.31C107.02 227.76 104.96 226.81 104.55 226.21ZM180.47 271.89C170.33 276.42 154.78 275.02 138.88 268.14C124.02 261.71 112.61 251.99 108.35 242.13C106.93 238.84 107.53 235.2 109.54 232.52C109.91 234.09 110.65 236.2 112.2 238.31C112.38 238.55 112.61 238.73 112.86 238.84C113.37 239.06 113.98 239.01 114.46 238.66C115.18 238.13 115.34 237.12 114.81 236.4C113.28 234.31 112.74 232.22 112.54 231.01C113.57 231.27 114.98 231.79 116.25 232.87C116.92 233.45 117.95 233.37 118.53 232.69C119.11 232.01 119.03 230.99 118.35 230.41C117.52 229.7 116.64 229.17 115.8 228.76C117.6 228.49 119.42 228.74 121.05 229.44C123.23 230.38 125.07 232.12 126.08 234.47C127.89 238.67 135.07 245.45 146.55 250.42C159.46 256.01 169.2 255.78 172.6 254.26C177.46 252.09 183.18 254.28 185.35 259.14C185.7 259.93 185.9 260.74 186.03 261.56C185 261.27 183.69 260.79 182.81 260.12C182.1 259.58 181.08 259.71 180.54 260.42C180 261.13 180.13 262.15 180.84 262.69C181.51 263.2 182.27 263.61 183.03 263.94C183.76 264.26 184.47 264.49 185.09 264.67C184.13 265.27 182.52 266.01 180.09 266.14C179.2 266.19 178.51 266.95 178.56 267.85C178.6 268.48 178.99 269.01 179.54 269.25C179.76 269.35 180.01 269.39 180.27 269.38C181.94 269.29 183.32 268.95 184.47 268.52C183.5 269.94 182.16 271.14 180.47 271.89Z" fill="#FAFAFF"/>
<path d="M137.663 472.238C138.144 472.637 138.718 472.804 139.321 472.714C140.578 472.531 143.625 471.941 144.73 470.378C145.111 469.842 145.242 469.231 145.112 468.615C144.831 467.266 142.84 465.942 141.114 465.024C141.36 464.709 141.596 464.381 141.807 464.029C144.419 459.616 142.966 453.964 138.569 451.431C136.991 450.521 133.088 445.609 131.115 436.24C129.303 427.63 130.509 421.317 131.702 419.358C134.277 415.129 133.072 409.711 129.06 407.007C130.379 405.396 132.147 402.884 131.816 401.317C131.686 400.701 131.319 400.202 130.757 399.877C129.124 398.928 126.115 399.683 124.893 400.051C124.307 400.226 123.852 400.622 123.574 401.19C123.136 402.082 123.232 403.345 123.468 404.481C123.543 404.821 123.627 405.138 123.713 405.444C120.616 405.518 117.599 407.119 115.872 409.961C111.547 417.073 110.451 428.406 112.955 440.278C115.641 453 121.671 463.15 129.091 467.432C131.278 468.694 133.783 468.948 136.071 468.342C136.111 468.646 136.165 468.958 136.232 469.287C136.478 470.424 136.905 471.616 137.663 472.238ZM142.849 469.046C142.673 469.409 141.18 470.094 139.123 470.403C138.799 470.075 138.467 468.779 138.331 467.423C138.691 467.217 139.042 467 139.373 466.754C141.13 467.641 142.659 468.657 142.849 469.046ZM125.646 402.244C127.649 401.65 129.279 401.638 129.543 401.808C129.57 402.367 128.38 404.245 126.953 405.942C126.73 405.866 126.508 405.805 126.287 405.745C125.76 404.327 125.464 402.734 125.646 402.244ZM130.288 465.426C123.419 461.467 117.791 451.879 115.24 439.779C112.855 428.47 113.836 417.772 117.865 411.152C119.21 408.944 121.598 407.757 124.007 407.791C123.238 408.667 122.305 409.984 121.707 411.77C121.641 411.975 121.63 412.184 121.669 412.375C121.752 412.763 122.034 413.095 122.439 413.225C123.049 413.419 123.709 413.086 123.913 412.475C124.507 410.709 125.511 409.516 126.139 408.891C126.414 409.596 126.693 410.631 126.585 411.821C126.522 412.453 126.996 413.016 127.637 413.065C128.277 413.114 128.843 412.638 128.902 412C128.975 411.221 128.922 410.488 128.814 409.829C129.72 410.757 130.328 411.916 130.592 413.154C130.944 414.811 130.685 416.609 129.722 418.184C128.004 421.001 126.997 428.013 128.838 436.751C130.907 446.577 135.083 452.116 137.387 453.443C140.678 455.341 141.764 459.574 139.807 462.878C139.488 463.413 139.095 463.87 138.667 464.291C138.41 463.573 138.149 462.613 138.177 461.821C138.2 461.183 137.701 460.647 137.059 460.634C136.418 460.62 135.872 461.126 135.849 461.764C135.828 462.367 135.902 462.979 136.023 463.558C136.138 464.115 136.297 464.623 136.449 465.058C135.698 464.755 134.595 464.135 133.51 462.784C133.112 462.29 132.379 462.211 131.87 462.619C131.517 462.907 131.367 463.356 131.454 463.776C131.487 463.945 131.567 464.107 131.68 464.253C132.426 465.182 133.198 465.837 133.928 466.321C132.691 466.358 131.43 466.088 130.288 465.426Z" fill="#FAFAFF"/>
<path d="M397.86 340.63C397.9 339.75 397.6 338.97 397 338.37C395.75 337.12 392.56 334.23 389.92 334.34C389.01 334.38 388.22 334.75 387.65 335.42C386.4 336.88 386.58 340.22 387 342.93C386.45 342.92 385.89 342.94 385.33 343.01C378.27 343.86 373.23 350.3 374.08 357.36C374.39 359.9 372.2 368.43 363.47 378.62C355.45 387.98 347.46 392.02 344.3 392.36C337.48 393.1 332.49 399.06 332.83 405.83C329.95 405.73 325.69 405.91 324.24 407.61C323.67 408.28 323.42 409.11 323.53 410.02C323.84 412.65 327.18 415.36 328.6 416.4C329.29 416.9 330.1 417.07 330.96 416.9C332.31 416.63 333.63 415.45 334.69 414.21C335.01 413.84 335.29 413.47 335.55 413.12C338.21 416.5 342.49 418.5 347.08 418C358.55 416.76 372 408.31 383.05 395.4C394.9 381.56 401.11 366.19 399.67 354.28C399.25 350.77 397.44 347.76 394.87 345.73C395.17 345.43 395.48 345.1 395.78 344.75C396.83 343.5 397.79 342.01 397.86 340.63ZM390.01 337.58C390.55 337.46 392.56 338.54 394.61 340.57C394.52 341.21 393.36 342.69 391.97 344C391.45 343.77 390.91 343.57 390.36 343.41C389.88 340.7 389.73 338.12 390.01 337.58ZM330.39 413.7C328.07 411.98 326.69 410.17 326.66 409.73C327.26 409.22 330.33 408.95 333.39 409.09C333.49 409.4 333.61 409.7 333.73 410C332.6 411.8 331.09 413.48 330.39 413.7ZM396.45 354.66C397.78 365.69 391.85 380.13 380.58 393.29C370.05 405.59 357.39 413.62 346.72 414.78C343.15 415.17 339.86 413.52 337.89 410.81C339.5 410.92 341.73 410.83 344.21 409.98C344.49 409.88 344.73 409.71 344.91 409.5C345.27 409.08 345.41 408.48 345.21 407.92C344.92 407.07 344 406.63 343.15 406.92C340.7 407.77 338.54 407.67 337.33 407.5C337.88 406.6 338.79 405.4 340.21 404.51C340.96 404.04 341.19 403.03 340.71 402.28C340.23 401.52 339.23 401.3 338.48 401.78C337.55 402.37 336.79 403.04 336.15 403.73C336.43 401.93 337.2 400.26 338.35 398.92C339.89 397.12 342.1 395.88 344.64 395.6C349.19 395.11 357.78 390.25 365.92 380.75C375.07 370.06 377.73 360.69 377.28 357C376.64 351.72 380.42 346.9 385.71 346.26C386.57 346.16 387.4 346.21 388.22 346.32C387.64 347.22 386.8 348.33 385.89 348.97C385.16 349.48 384.99 350.5 385.51 351.23C386.03 351.96 387.04 352.13 387.77 351.61C388.45 351.12 389.07 350.52 389.61 349.89C390.13 349.29 390.56 348.67 390.91 348.13C391.21 349.22 391.43 350.98 390.84 353.34C390.62 354.21 391.15 355.09 392.02 355.3C392.64 355.45 393.26 355.23 393.64 354.78C393.8 354.6 393.92 354.37 393.98 354.12C394.39 352.49 394.47 351.08 394.4 349.85C395.48 351.18 396.23 352.82 396.45 354.66Z" fill="#FAFAFF"/>
<path d="M72.8497 722.5C72.8897 721.62 72.5897 720.84 71.9897 720.24C70.7397 718.99 67.5497 716.1 64.9097 716.21C63.9997 716.25 63.2097 716.62 62.6397 717.29C61.3897 718.75 61.5697 722.09 61.9897 724.8C61.4397 724.79 60.8797 724.81 60.3197 724.88C53.2597 725.73 48.2197 732.17 49.0697 739.23C49.3797 741.77 47.1897 750.3 38.4597 760.49C30.4397 769.85 22.4497 773.89 19.2897 774.23C12.4697 774.97 7.47974 780.93 7.81974 787.7C4.93974 787.6 0.679737 787.78 -0.770263 789.48C-1.34026 790.15 -1.59026 790.98 -1.48026 791.89C-1.17026 794.52 2.16974 797.23 3.58974 798.27C4.27974 798.77 5.08974 798.94 5.94974 798.77C7.29974 798.5 8.61974 797.32 9.67974 796.08C9.99974 795.71 10.2797 795.34 10.5397 794.99C13.1997 798.37 17.4797 800.37 22.0697 799.87C33.5397 798.63 46.9897 790.18 58.0397 777.27C69.8897 763.43 76.0997 748.06 74.6597 736.15C74.2397 732.64 72.4297 729.63 69.8597 727.6C70.1597 727.3 70.4697 726.97 70.7697 726.62C71.8197 725.37 72.7797 723.88 72.8497 722.5ZM64.9997 719.45C65.5397 719.33 67.5497 720.41 69.5997 722.44C69.5097 723.08 68.3497 724.56 66.9597 725.87C66.4397 725.64 65.8997 725.44 65.3497 725.28C64.8697 722.57 64.7197 719.99 64.9997 719.45ZM5.37974 795.57C3.05974 793.85 1.67974 792.04 1.64974 791.6C2.24974 791.09 5.31974 790.82 8.37974 790.96C8.47974 791.27 8.59974 791.57 8.71974 791.87C7.58974 793.68 6.07974 795.36 5.37974 795.57ZM71.4397 736.53C72.7697 747.56 66.8397 762 55.5697 775.16C45.0397 787.46 32.3797 795.49 21.7097 796.65C18.1397 797.04 14.8497 795.39 12.8797 792.68C14.4897 792.79 16.7197 792.7 19.1997 791.85C19.4797 791.75 19.7197 791.58 19.8997 791.37C20.2597 790.95 20.3997 790.35 20.1997 789.79C19.9097 788.94 18.9897 788.5 18.1397 788.79C15.6897 789.64 13.5297 789.54 12.3197 789.37C12.8697 788.47 13.7797 787.27 15.1997 786.38C15.9497 785.91 16.1797 784.9 15.6997 784.15C15.2197 783.39 14.2197 783.17 13.4697 783.65C12.5397 784.24 11.7797 784.91 11.1397 785.6C11.4197 783.8 12.1897 782.13 13.3397 780.79C14.8797 778.99 17.0897 777.75 19.6297 777.47C24.1797 776.98 32.7697 772.12 40.9097 762.62C50.0597 751.93 52.7197 742.56 52.2697 738.87C51.6297 733.59 55.4097 728.77 60.6997 728.13C61.5597 728.03 62.3897 728.08 63.2097 728.19C62.6297 729.09 61.7897 730.2 60.8797 730.84C60.1497 731.35 59.9797 732.37 60.4997 733.1C61.0197 733.83 62.0297 734 62.7597 733.48C63.4397 732.99 64.0597 732.39 64.5997 731.76C65.1197 731.16 65.5497 730.54 65.8997 730C66.1997 731.09 66.4197 732.85 65.8297 735.21C65.6097 736.08 66.1397 736.96 67.0097 737.17C67.6297 737.32 68.2497 737.1 68.6297 736.65C68.7897 736.47 68.9097 736.24 68.9697 735.99C69.3797 734.36 69.4597 732.95 69.3897 731.72C70.4697 733.06 71.2197 734.69 71.4397 736.53Z" fill="#FAFAFF"/>
<path d="M402.76 252.99C394.77 242.48 383.9 234.7 371.33 230.5C357.75 225.97 343.41 225.96 329.86 230.49C326.19 231.71 324.02 235.54 324.8 239.4L328.51 257.54L339.11 309.46C339.46 311.17 340.65 312.51 342.3 313.06C343.95 313.61 345.72 313.25 347.02 312.1L388.3 275.53L401.77 263.59C404.8 260.91 405.24 256.25 402.76 252.99ZM344.88 309.68C344.26 310.23 343.59 310.08 343.33 310C343.07 309.91 342.45 309.62 342.28 308.82L337.79 286.81C340.85 285.7 343.4 283.25 344.51 279.92C346.44 274.12 343.31 267.86 337.52 265.92C336.16 265.46 334.77 265.3 333.42 265.38L331.93 258.08C341.5 252.93 352.77 251.92 363.05 255.35C366.61 256.54 369.92 258.2 372.93 260.27C370.73 261.68 368.61 265.7 367.69 268.45C365.66 274.54 368.46 281.06 374 283.9L365.55 291.39C364.59 290.59 363.48 289.95 362.22 289.53C356.78 287.71 350.89 290.65 349.08 296.1C348.04 299.2 348.56 302.44 350.2 305L344.88 309.68ZM399.62 261.17L387.68 271.74C382.48 262.52 374.16 255.64 364.05 252.26C353.23 248.65 341.4 249.57 331.23 254.74L327.96 238.74C327.5 236.49 328.75 234.26 330.87 233.55C343.75 229.25 357.39 229.26 370.29 233.56C382.24 237.55 392.57 244.94 400.17 254.94C401.67 256.91 401.43 259.58 399.62 261.17Z" fill="#FAFAFF"/>
<path d="M354.75 263.06C355.07 262.11 354.55 261.07 353.6 260.76C352.65 260.44 351.61 260.96 351.3 261.91C350.98 262.86 351.5 263.9 352.45 264.21C353.4 264.53 354.44 264.02 354.75 263.06Z" fill="#FAFAFF"/>
<path d="M360.7 281.69C361.65 282.01 362.69 281.49 363 280.54C363.32 279.59 362.8 278.55 361.85 278.24C360.9 277.92 359.86 278.44 359.55 279.39C359.23 280.34 359.74 281.37 360.7 281.69Z" fill="#FAFAFF"/>
<path d="M346.7 287.83C346.13 287.64 345.52 287.95 345.33 288.51C345.14 289.08 345.45 289.69 346.01 289.88C346.58 290.07 347.19 289.76 347.38 289.2C347.57 288.63 347.27 288.02 346.7 287.83Z" fill="#FAFAFF"/>
<path d="M161.22 216.05C174.19 218.54 187.47 217.06 199.63 211.78C212.76 206.08 223.43 196.5 230.5 184.08C232.41 180.72 231.47 176.41 228.31 174.07L213.43 163.05L170.85 131.5C169.45 130.46 167.66 130.26 166.07 130.95C164.47 131.64 163.4 133.09 163.2 134.82L156.92 189.61L154.87 207.49C154.41 211.52 157.2 215.28 161.22 216.05ZM166.41 135.2C166.5 134.38 167.1 134.04 167.35 133.93C167.6 133.82 168.26 133.62 168.92 134.11L186.97 147.48C185.44 150.36 185.18 153.88 186.58 157.1C189.01 162.71 195.53 165.28 201.13 162.84C202.45 162.27 203.59 161.46 204.54 160.5L210.53 164.94C206.85 175.16 199.13 183.45 189.2 187.76C185.76 189.25 182.19 190.23 178.57 190.7C179.26 188.18 178.16 183.78 177 181.12C174.45 175.23 168.01 172.25 161.99 173.84L163.27 162.62C164.52 162.57 165.77 162.31 166.99 161.78C172.25 159.5 174.67 153.38 172.38 148.11C171.08 145.11 168.53 143.04 165.6 142.24L166.41 135.2ZM158.09 207.87L159.9 192.03C169.93 195.42 180.71 194.98 190.49 190.74C200.95 186.2 209.14 177.61 213.25 166.96L226.37 176.68C228.22 178.05 228.78 180.54 227.67 182.48C220.96 194.29 210.81 203.39 198.33 208.81C186.77 213.83 174.15 215.23 161.82 212.87C159.42 212.41 157.81 210.26 158.09 207.87Z" fill="#FAFAFF"/>
<path d="M190.21 176.48C190.61 177.4 191.68 177.83 192.61 177.43C193.53 177.03 193.96 175.96 193.56 175.03C193.16 174.11 192.09 173.68 191.16 174.08C190.24 174.49 189.81 175.56 190.21 176.48Z" fill="#FAFAFF"/>
<path d="M173.34 166.6C172.42 167 171.99 168.07 172.39 169C172.79 169.93 173.86 170.35 174.79 169.95C175.71 169.55 176.14 168.48 175.74 167.55C175.34 166.62 174.27 166.2 173.34 166.6Z" fill="#FAFAFF"/>
<path d="M179.66 152.68C180.21 152.44 180.46 151.81 180.22 151.26C179.98 150.71 179.35 150.46 178.8 150.7C178.25 150.94 178 151.57 178.24 152.12C178.48 152.66 179.11 152.92 179.66 152.68Z" fill="#FAFAFF"/>
<path d="M62.33 553.34C70.19 563.95 80.96 571.86 93.48 576.22C107 580.92 121.34 581.1 134.95 576.75C138.64 575.57 140.86 571.77 140.12 567.9L136.64 549.71L126.68 497.66C126.35 495.95 125.18 494.59 123.53 494.02C121.88 493.45 120.12 493.79 118.8 494.92L77.07 530.98L63.45 542.75C60.38 545.39 59.89 550.05 62.33 553.34ZM120.91 497.37C121.53 496.83 122.2 496.98 122.46 497.07C122.72 497.16 123.34 497.46 123.49 498.26L127.71 520.33C124.63 521.41 122.06 523.82 120.91 527.14C118.9 532.91 121.96 539.22 127.73 541.22C129.09 541.69 130.47 541.87 131.83 541.81L133.23 549.13C123.59 554.16 112.31 555.03 102.08 551.47C98.54 550.24 95.25 548.53 92.26 546.43C94.48 545.05 96.64 541.06 97.6 538.32C99.71 532.26 96.99 525.7 91.49 522.8L100.03 515.42C100.98 516.23 102.09 516.88 103.33 517.32C108.75 519.2 114.67 516.34 116.56 510.92C117.63 507.83 117.16 504.58 115.55 502.01L120.91 497.37ZM65.56 545.2L77.63 534.78C82.71 544.07 90.94 551.05 101.01 554.55C111.78 558.29 123.63 557.52 133.86 552.48L136.93 568.52C137.36 570.78 136.08 572.99 133.96 573.67C121.02 577.81 107.39 577.63 94.54 573.17C82.64 569.03 72.4 561.51 64.93 551.42C63.47 549.44 63.74 546.77 65.56 545.2Z" fill="#FAFAFF"/>
<path d="M110.46 543.87C110.13 544.82 110.63 545.86 111.58 546.19C112.53 546.52 113.57 546.02 113.9 545.07C114.23 544.12 113.73 543.08 112.78 542.75C111.82 542.42 110.79 542.92 110.46 543.87Z" fill="#FAFAFF"/>
<path d="M104.74 525.17C103.79 524.84 102.75 525.34 102.42 526.29C102.09 527.24 102.59 528.28 103.54 528.61C104.49 528.94 105.53 528.44 105.86 527.49C106.2 526.54 105.69 525.5 104.74 525.17Z" fill="#FAFAFF"/>
<path d="M118.82 519.21C119.38 519.41 120 519.11 120.19 518.55C120.39 517.99 120.09 517.37 119.52 517.18C118.96 516.98 118.34 517.28 118.15 517.85C117.96 518.39 118.25 519.01 118.82 519.21Z" fill="#FAFAFF"/>
<path d="M167.063 407.875C172.455 415.152 179.842 420.578 188.43 423.569C197.703 426.792 207.539 426.916 216.875 423.932C219.406 423.123 220.928 420.516 220.421 417.862L218.034 405.385L211.202 369.683C210.976 368.51 210.173 367.577 209.041 367.186C207.91 366.795 206.702 367.029 205.797 367.804L177.174 392.538L167.832 400.611C165.726 402.422 165.39 405.618 167.063 407.875ZM207.244 369.484C207.67 369.114 208.129 369.217 208.307 369.278C208.486 369.34 208.911 369.546 209.014 370.095L211.909 385.233C209.796 385.974 208.033 387.627 207.244 389.904C205.866 393.862 207.964 398.19 211.922 399.561C212.855 399.884 213.802 400.007 214.734 399.966L215.695 404.987C209.083 408.437 201.345 409.034 194.328 406.592C191.9 405.748 189.644 404.576 187.593 403.135C189.116 402.189 190.597 399.452 191.256 397.572C192.703 393.416 190.837 388.916 187.065 386.927L192.922 381.865C193.574 382.42 194.335 382.866 195.186 383.168C198.904 384.458 202.964 382.496 204.261 378.778C204.994 376.659 204.672 374.43 203.568 372.667L207.244 369.484ZM169.279 402.291L177.558 395.144C181.042 401.516 186.687 406.304 193.595 408.705C200.982 411.27 209.11 410.742 216.127 407.285L218.233 418.287C218.528 419.837 217.65 421.353 216.195 421.819C207.32 424.659 197.971 424.536 189.157 421.477C180.994 418.637 173.97 413.479 168.847 406.558C167.845 405.2 168.03 403.368 169.279 402.291Z" fill="#FAFAFF"/>
<path d="M200.077 401.379C199.85 402.031 200.193 402.744 200.845 402.971C201.496 403.197 202.21 402.854 202.436 402.202C202.662 401.551 202.319 400.837 201.668 400.611C201.009 400.385 200.303 400.728 200.077 401.379Z" fill="#FAFAFF"/>
<path d="M196.153 388.552C195.501 388.326 194.788 388.669 194.562 389.321C194.335 389.972 194.678 390.686 195.33 390.912C195.981 391.138 196.695 390.795 196.921 390.144C197.154 389.492 196.805 388.779 196.153 388.552Z" fill="#FAFAFF"/>
<path d="M205.811 384.464C206.195 384.602 206.62 384.396 206.75 384.012C206.888 383.628 206.682 383.202 206.291 383.072C205.907 382.935 205.481 383.141 205.351 383.532C205.221 383.902 205.42 384.327 205.811 384.464Z" fill="#FAFAFF"/>
<path d="M23.6799 407.02C18.7499 404.56 14.4999 402.44 14.4999 396.21C14.4999 382.46 13.7699 372.4 4.3499 368.28C0.3899 366.55 -4.1601 366.01 -8.8301 366.71C-15.8401 365.64 -22.6101 367.85 -25.8701 369.99C-27.2301 370.74 -42.8501 379.72 -42.8501 398.91C-42.8501 417.88 -24.7001 439.93 -1.2901 439.93C2.4199 439.93 5.8599 439.58 8.9599 438.9V438.98C23.0799 438.98 29.3599 434.39 32.1399 430.54C34.9999 426.58 35.5999 421.49 33.8399 416.21C32.2099 411.28 27.8699 409.12 23.6799 407.02ZM-39.6001 398.91C-39.6001 381.26 -24.4201 372.89 -24.2601 372.81L-24.1301 372.73C-22.1601 371.41 -17.6501 369.66 -12.5201 369.66C-9.9601 369.66 -7.2501 370.1 -4.6201 371.25C3.0099 374.59 3.5799 383.3 3.5799 396.21C3.5799 404.44 9.4099 407.35 14.5499 409.92C18.3199 411.8 21.8799 413.58 23.0899 417.23C24.3499 421.02 23.7399 424.93 21.3599 428.23C17.4299 433.69 9.3899 436.69 -1.2801 436.69C-22.5101 436.69 -39.6001 416.02 -39.6001 398.91ZM29.5199 428.64C27.4699 431.49 23.9899 433.5 19.2799 434.64C21.1499 433.35 22.7399 431.84 23.9799 430.11C26.9399 426 27.7399 420.93 26.1599 416.19C24.5199 411.26 20.1799 409.1 15.9899 407.01C11.0599 404.55 6.8099 402.43 6.8099 396.2C6.8099 384.25 6.2499 375.1 -0.0700989 370.2C0.9599 370.45 2.0099 370.78 3.0599 371.24C10.6899 374.58 11.2599 383.29 11.2599 396.2C11.2599 404.43 17.0899 407.34 22.2299 409.91C25.9999 411.79 29.5599 413.57 30.7699 417.22C32.1999 421.49 31.7499 425.55 29.5199 428.64Z" fill="#FAFAFF"/>
<path d="M8.1599 413.48C3.2999 411.59 1.6799 418.34 -1.0201 420.77C-3.7201 423.2 -9.9301 428.87 -3.1801 430.48C3.5699 432.1 18.4099 428.32 17.8699 421.57C17.3399 414.83 8.1599 413.48 8.1599 413.48Z" fill="#FAFAFF"/>
<path d="M275.2 63.48C270.02 61.62 265.55 60.01 264.82 53.82C263.21 40.16 261.31 30.26 251.47 27.27C247.33 26.01 242.75 26.01 238.19 27.26C231.1 27.02 224.64 30 221.65 32.51C220.38 33.41 205.93 44.16 208.18 63.22C210.4 82.06 231.02 101.83 254.26 99.08C257.95 98.64 261.32 97.89 264.32 96.86L264.33 96.94C278.36 95.28 284.05 89.99 286.36 85.84C288.73 81.57 288.74 76.44 286.37 71.41C284.17 66.71 279.61 65.07 275.2 63.48ZM211.41 62.84C209.34 45.31 223.44 35.22 223.58 35.12L223.7 35.02C225.51 33.48 229.78 31.21 234.87 30.61C237.41 30.31 240.16 30.43 242.9 31.26C250.87 33.68 252.46 42.27 253.98 55.09C254.95 63.27 261.07 65.47 266.48 67.42C270.44 68.85 274.18 70.19 275.82 73.68C277.52 77.3 277.37 81.25 275.39 84.81C272.12 90.69 264.49 94.61 253.9 95.87C232.81 98.36 213.41 79.84 211.41 62.84ZM283.54 84.27C281.83 87.34 278.61 89.75 274.07 91.43C275.78 89.93 277.18 88.24 278.21 86.38C280.67 81.95 280.86 76.82 278.74 72.3C276.53 67.6 271.97 65.96 267.56 64.37C262.38 62.51 257.91 60.9 257.18 54.71C255.78 42.84 254.15 33.82 247.3 29.69C248.35 29.81 249.43 30.02 250.53 30.36C258.5 32.78 260.09 41.37 261.61 54.19C262.58 62.37 268.7 64.57 274.11 66.52C278.07 67.95 281.81 69.29 283.45 72.78C285.36 76.85 285.39 80.93 283.54 84.27Z" fill="#FAFAFF"/>
<path d="M260.55 71.7099C255.5 70.3999 254.69 77.2899 252.29 80.0199C249.9 82.7499 244.4 89.0999 251.29 89.9199C258.18 90.7399 272.48 85.2399 271.15 78.6099C269.82 71.9799 260.55 71.7099 260.55 71.7099Z" fill="#FAFAFF"/>
<path d="M246.13 74.8499C243.55 73.6899 238.7 74.0199 233.98 73.3499C229.26 72.6899 223.49 71.4099 224.13 74.7599C224.13 74.7599 229.72 84.8499 238.47 86.4999C243.17 84.9699 248.71 76.0099 246.13 74.8499Z" fill="#FAFAFF"/>
<path d="M249.56 63.77C250.49 60.13 245.3 50.69 243.69 46.26C242.08 41.83 240.36 34.15 229.86 37.3C229.86 37.3 220.17 40.35 217.74 52.05C215.32 63.75 227.91 66.88 234.27 67.76C240.62 68.63 248.63 67.42 249.56 63.77ZM227.56 52.99C227.31 50.88 228.82 48.97 230.93 48.72C233.04 48.47 234.95 49.98 235.2 52.09C235.45 54.2 233.94 56.11 231.83 56.36C229.73 56.61 227.81 55.1 227.56 52.99Z" fill="#FAFAFF"/>
<path d="M342.87 760.83C338.23 757.86 334.23 755.3 334.89 749.1C336.35 735.42 336.69 725.35 327.76 720.25C324 718.11 319.54 717.09 314.82 717.29C307.96 715.48 301 716.96 297.53 718.74C296.09 719.34 279.62 726.61 277.58 745.69C275.57 764.55 291.28 788.4 314.55 790.89C318.24 791.28 321.69 791.3 324.86 790.96L324.85 791.04C338.89 792.54 345.62 788.64 348.79 785.1C352.05 781.46 353.19 776.46 352 771.03C350.9 765.97 346.82 763.36 342.87 760.83ZM280.81 746.05C282.68 728.5 298.67 721.79 298.83 721.73L298.97 721.66C301.07 720.56 305.74 719.3 310.84 719.84C313.38 720.11 316.03 720.83 318.52 722.25C325.76 726.38 325.4 735.11 324.03 747.94C323.16 756.13 328.64 759.64 333.48 762.74C337.03 765.01 340.38 767.15 341.2 770.92C342.05 774.82 341.03 778.64 338.31 781.67C333.82 786.68 325.51 788.81 314.9 787.68C293.79 785.43 278.99 763.06 280.81 746.05ZM346.38 782.95C344.04 785.56 340.36 787.2 335.56 787.83C337.56 786.75 339.3 785.41 340.72 783.83C344.1 780.06 345.43 775.1 344.36 770.22C343.25 765.15 339.17 762.54 335.22 760.01C330.58 757.04 326.58 754.48 327.24 748.28C328.51 736.4 328.93 727.24 323.16 721.69C324.16 722.04 325.16 722.49 326.16 723.06C333.4 727.19 333.04 735.92 331.67 748.75C330.8 756.94 336.28 760.45 341.12 763.55C344.67 765.82 348.02 767.96 348.84 771.73C349.81 776.13 348.93 780.11 346.38 782.95Z" fill="#FAFAFF"/>
<path d="M326.75 765.61C322.12 763.22 319.79 769.75 316.85 771.88C313.91 774.01 307.14 778.98 313.67 781.31C320.21 783.64 335.37 781.45 335.54 774.69C335.73 767.92 326.75 765.61 326.75 765.61Z" fill="#FAFAFF"/>
<path d="M312 765.46C309.74 763.76 304.94 763 300.49 761.3C296.03 759.6 290.69 757.08 290.57 760.49C290.57 760.49 293.78 771.57 301.94 775.12C306.87 774.67 314.25 767.17 312 765.46Z" fill="#FAFAFF"/>
<path d="M317.8 755.42C319.51 752.07 316.55 741.72 315.96 737.04C315.37 732.36 315.4 724.5 304.47 725.23C304.47 725.23 294.34 726.05 289.38 736.92C284.42 747.79 296.01 753.64 302.01 755.91C308.01 758.18 316.09 758.77 317.8 755.42ZM298.75 740.03C298.98 737.92 300.87 736.39 302.98 736.61C305.09 736.84 306.62 738.73 306.4 740.84C306.17 742.95 304.28 744.48 302.17 744.26C300.05 744.03 298.52 742.14 298.75 740.03Z" fill="#FAFAFF"/>
<path d="M210.22 635.91L205.35 622.47L192.49 628.06L194.31 633.46L194.2 633.5L194.4 634.04L190.71 636.3L188.63 631.5L181.25 635.46L178.86 630.03L167.05 636.28L170.78 643.21L168.8 644.32L165.92 639.73L158.99 643.99L156.24 639.65L145.11 646.37L147.77 650.51L141.02 654.77L149.43 666.04L146.4 667.54L185.4 719.46L230.93 696.9L213.24 634.42L210.22 635.91ZM203.48 626.81L207.3 637.35L200.35 640.8L198.37 635.41L198.4 635.39L196.52 629.84L203.48 626.81ZM195.54 637.14L197.42 642.25L194.27 643.81L194.7 645.14C194.71 645.17 195.01 646.16 195.24 647.63L191.97 639.32L195.54 637.14ZM187.06 636.01L188.48 639.28L194.8 655.37L194.87 655.34C194.29 657.24 193.23 659.07 191.41 660.51L182.51 638.45L187.06 636.01ZM177.3 634.52L178.98 638.34L188.61 662.2L185.27 663.86L175.14 644.49L175.16 644.48L174.42 643.11L174.41 643.1L171.46 637.62L177.3 634.52ZM172.3 646.06L182.35 665.28C182.07 665.41 181.8 665.51 181.53 665.61L170.49 647.07L172.3 646.06ZM166.88 647.33L178.18 666.31C176.31 666.37 174.59 665.91 173.06 665.18L160.75 646.7L164.88 644.16L166.88 647.33ZM155.2 644.05L157.13 647.1L157.15 647.12L157.97 648.42L158 648.4L164.7 658.47L159.37 661.11L151.35 650.09L149.63 647.41L155.2 644.05ZM145.7 655.63L149.59 653.17L156.42 662.56L152.37 664.57L145.7 655.63ZM186.37 715.36L182.61 710.36L225.37 689.17L227.07 695.19L186.37 715.36ZM224.48 686L180.64 707.73L151.33 668.71L164.36 662.25C167.92 666.61 175.55 672.29 184 668.1L190.92 664.67C199.37 660.48 199.48 650.97 198.16 645.5L211.19 639.04L224.48 686Z" fill="#FAFAFF"/>
<path d="M294.54 297.48L292.28 283.36L278.6 286.44L279.38 292.08L279.27 292.1L279.36 292.67L275.31 294.19L274.16 289.08L266.16 291.58L264.83 285.8L252.06 289.73L254.43 297.23L252.28 297.95L250.31 292.9L242.7 295.79L240.81 291.01L228.62 295.52L230.45 300.09L223.02 303.01L229.17 315.66L225.91 316.57L254.47 374.89L303.43 361.27L297.78 296.58L294.54 297.48ZM289.62 287.28L291.39 298.35L283.91 300.43L282.98 294.77L283.01 294.76L282.21 288.95L289.62 287.28ZM279.89 295.93L280.78 301.3L277.39 302.24L277.56 303.62C277.56 303.66 277.67 304.68 277.63 306.17L275.98 297.39L279.89 295.93ZM271.77 293.23L272.55 296.71L275.74 313.7L275.82 313.69C274.9 315.45 273.51 317.04 271.45 318.12L266.85 294.78L271.77 293.23ZM262.46 289.93L263.4 294L268.38 319.24L264.78 320.24L258.46 299.31L258.48 299.3L258.01 297.81V297.8L256.14 291.87L262.46 289.93ZM255.39 300.34L261.65 321.1C261.35 321.18 261.07 321.22 260.78 321.27L253.42 300.99L255.39 300.34ZM249.82 300.56L257.36 321.33C255.52 321.04 253.91 320.26 252.55 319.26L243.93 298.79L248.46 297.07L249.82 300.56ZM238.97 295.15L240.3 298.5L240.31 298.53L240.87 299.96L240.9 299.95L245.6 311.1L239.87 312.69L234.06 300.37L232.87 297.41L238.97 295.15ZM227.47 304.74L231.75 303.06L236.7 313.56L232.34 314.77L227.47 304.74ZM256.2 371.04L253.45 365.42L299.43 352.63L299.97 358.86L256.2 371.04ZM299.14 349.35L252 362.47L230.53 318.64L244.54 314.74C247.22 319.7 253.65 326.7 262.74 324.17L270.18 322.1C279.27 319.57 281.16 310.25 280.89 304.63L294.9 300.73L299.14 349.35Z" fill="#FAFAFF"/>
<path d="M312.91 473.32L311.97 473.23C308.55 472.89 305.19 474.06 302.73 476.44C301.19 477.94 300.11 479.81 299.59 481.84C299.06 479.81 297.99 477.94 296.45 476.44C293.99 474.06 290.63 472.89 287.21 473.23L286.27 473.32L286.2 474.26C285.96 477.68 287.23 481.02 289.69 483.4C291.86 485.51 294.75 486.67 297.76 486.67C298.01 486.67 298.26 486.65 298.5 486.63V490.47C298.5 496.78 303.33 498.53 303.54 498.61L304.28 496.5C304.14 496.45 300.74 495.15 300.74 490.47V486.63C300.97 486.64 301.2 486.66 301.42 486.66C304.42 486.66 307.31 485.5 309.49 483.39C311.95 481.01 313.22 477.67 312.98 474.25L312.91 473.32ZM291.25 481.79C289.5 480.1 288.5 477.81 288.42 475.4C290.83 475.41 293.15 476.34 294.89 478.04C296.39 479.5 297.34 481.4 297.63 483.44L292.83 478.8C292.61 478.59 292.25 478.59 292.04 478.81C291.83 479.03 291.83 479.39 292.05 479.6L297 484.39C294.86 484.22 292.82 483.32 291.25 481.79ZM307.93 481.79C306.31 483.37 304.18 484.28 301.95 484.4L304.9 482.06C305.14 481.87 305.18 481.52 304.99 481.28C304.8 481.04 304.45 481 304.21 481.19L301.58 483.28C301.89 481.3 302.83 479.46 304.29 478.04C306.04 476.35 308.35 475.41 310.76 475.4C310.68 477.81 309.68 480.1 307.93 481.79Z" fill="#FAFAFF"/>
<path d="M313.38 654.63L312.5 654.97C309.3 656.23 306.85 658.81 305.75 662.05C305.06 664.09 304.96 666.24 305.43 668.29C304.03 666.72 302.22 665.55 300.16 664.92C296.89 663.92 293.36 664.42 290.47 666.29L289.68 666.8L290.05 667.67C291.4 670.83 294.06 673.21 297.33 674.2C300.23 675.08 303.33 674.79 306 673.42C306.22 673.31 306.43 673.17 306.64 673.05L308.4 676.47C311.29 682.08 316.38 681.43 316.6 681.4L316.3 679.19C316.15 679.21 312.53 679.61 310.39 675.45L308.63 672.03C308.84 671.94 309.05 671.85 309.25 671.75C311.92 670.38 313.96 668.02 314.93 665.15C316.02 661.91 315.63 658.36 313.85 655.43L313.38 654.63ZM297.99 672.08C295.66 671.37 293.72 669.8 292.55 667.69C294.7 666.6 297.19 666.37 299.51 667.08C301.51 667.69 303.23 668.95 304.42 670.63L298.03 668.7C297.74 668.61 297.42 668.78 297.33 669.07C297.24 669.37 297.41 669.68 297.7 669.77L304.3 671.76C302.32 672.59 300.09 672.72 297.99 672.08ZM312.83 664.45C312.11 666.6 310.64 668.37 308.71 669.51L310.26 666.08C310.39 665.8 310.26 665.47 309.98 665.34C309.7 665.21 309.37 665.34 309.24 665.62L307.86 668.68C307.23 666.78 307.22 664.71 307.87 662.78C308.65 660.47 310.28 658.58 312.42 657.47C313.46 659.65 313.61 662.14 312.83 664.45Z" fill="#FAFAFF"/>
<path d="M105.54 274.55L104.73 274.47C101.77 274.17 98.8499 275.19 96.7199 277.25C95.3799 278.55 94.4499 280.17 93.9999 281.93C93.5399 280.17 92.6099 278.55 91.2799 277.25C89.1499 275.19 86.2399 274.17 83.2699 274.47L82.4599 274.55L82.3999 275.36C82.1899 278.33 83.2899 281.21 85.4199 283.28C87.2999 285.11 89.8099 286.11 92.4099 286.11C92.6199 286.11 92.8399 286.09 93.0499 286.08V289.41C93.0499 294.88 97.2299 296.4 97.4099 296.46L98.0499 294.63C97.9199 294.58 94.9799 293.46 94.9799 289.41V286.08C95.1799 286.09 95.3799 286.11 95.5699 286.11C98.1699 286.11 100.68 285.11 102.56 283.28C104.69 281.21 105.79 278.33 105.58 275.36L105.54 274.55ZM86.7699 281.89C85.2599 280.42 84.3899 278.44 84.3199 276.35C86.4099 276.36 88.4199 277.17 89.9299 278.64C91.2299 279.9 92.0499 281.55 92.2999 283.32L88.1499 279.3C87.9599 279.11 87.6499 279.12 87.4699 279.31C87.2799 279.5 87.2899 279.81 87.4799 279.99L91.7699 284.14C89.8999 284 88.1399 283.21 86.7699 281.89ZM101.23 281.89C99.8199 283.26 97.9899 284.04 96.0499 284.15L98.5999 282.12C98.8099 281.95 98.8399 281.65 98.6799 281.44C98.5099 281.23 98.2099 281.2 97.9999 281.36L95.7199 283.17C95.9899 281.46 96.7999 279.86 98.0699 278.63C99.5799 277.16 101.59 276.35 103.68 276.34C103.61 278.44 102.74 280.42 101.23 281.89Z" fill="#FAFAFF"/>
<path d="M171.4 340.91L172.19 340.39C175.06 338.5 176.93 335.47 177.34 332.07C177.59 329.93 177.25 327.81 176.37 325.9C178.06 327.15 180.07 327.92 182.22 328.11C185.63 328.41 188.98 327.2 191.42 324.78L192.09 324.12L191.55 323.35C189.58 320.54 186.49 318.76 183.08 318.45C180.06 318.18 177.09 319.1 174.76 321C174.57 321.16 174.39 321.33 174.21 321.5L171.79 318.52C167.81 313.62 162.96 315.31 162.75 315.38L163.5 317.48C163.65 317.43 167.1 316.29 170.05 319.92L172.47 322.9C172.28 323.03 172.09 323.16 171.92 323.3C169.59 325.19 168.08 327.92 167.72 330.93C167.32 334.33 168.43 337.72 170.78 340.22L171.4 340.91ZM182.87 320.67C185.29 320.88 187.51 322.03 189.1 323.85C187.22 325.36 184.83 326.1 182.41 325.88C180.32 325.7 178.39 324.82 176.88 323.42L183.53 324C183.84 324.03 184.11 323.8 184.14 323.49C184.17 323.18 183.94 322.91 183.63 322.88L176.76 322.29C178.54 321.06 180.69 320.48 182.87 320.67ZM169.92 331.19C170.19 328.94 171.26 326.9 172.91 325.39L172.1 329.07C172.03 329.37 172.22 329.67 172.53 329.74C172.83 329.81 173.13 329.62 173.2 329.31L173.92 326.03C174.92 327.76 175.36 329.78 175.12 331.81C174.83 334.23 173.63 336.41 171.76 337.94C170.3 336.02 169.64 333.61 169.92 331.19Z" fill="#FAFAFF"/>
<path d="M239.64 156.6L240.43 156.08C243.3 154.19 245.17 151.16 245.58 147.76C245.83 145.62 245.49 143.5 244.61 141.59C246.3 142.84 248.31 143.61 250.46 143.8C253.87 144.1 257.22 142.89 259.66 140.47L260.33 139.81L259.79 139.04C257.82 136.23 254.73 134.45 251.32 134.14C248.3 133.87 245.33 134.79 243 136.69C242.81 136.85 242.63 137.02 242.45 137.19L240.03 134.21C236.05 129.31 231.2 131 230.99 131.07L231.74 133.17C231.89 133.12 235.34 131.98 238.29 135.61L240.71 138.59C240.52 138.72 240.33 138.85 240.16 138.99C237.83 140.88 236.32 143.61 235.96 146.62C235.56 150.02 236.67 153.41 239.02 155.91L239.64 156.6ZM251.11 136.36C253.53 136.57 255.75 137.72 257.34 139.54C255.46 141.05 253.07 141.79 250.65 141.57C248.56 141.39 246.63 140.51 245.12 139.11L251.77 139.69C252.08 139.72 252.35 139.49 252.38 139.18C252.41 138.87 252.18 138.6 251.87 138.57L245 137.98C246.77 136.75 248.92 136.17 251.11 136.36ZM238.16 146.88C238.43 144.63 239.5 142.59 241.15 141.08L240.34 144.76C240.27 145.06 240.46 145.36 240.77 145.43C241.07 145.5 241.37 145.31 241.44 145L242.16 141.72C243.16 143.45 243.6 145.47 243.36 147.5C243.07 149.92 241.87 152.1 240 153.63C238.53 151.7 237.87 149.3 238.16 146.88Z" fill="#FAFAFF"/>
<path d="M282.65 42.8674L283.44 42.3474C286.31 40.4574 288.18 37.4274 288.59 34.0274C288.84 31.8874 288.5 29.7674 287.62 27.8574C289.31 29.1074 291.32 29.8774 293.47 30.0674C296.88 30.3674 300.23 29.1574 302.67 26.7374L303.34 26.0774L302.8 25.3074C300.83 22.4974 297.74 20.7174 294.33 20.4074C291.31 20.1374 288.34 21.0574 286.01 22.9574C285.82 23.1174 285.64 23.2874 285.46 23.4574L283.04 20.4774C279.06 15.5774 274.21 17.2674 274 17.3374L274.75 19.4374C274.9 19.3874 278.35 18.2474 281.3 21.8774L283.72 24.8574C283.53 24.9874 283.34 25.1174 283.17 25.2574C280.84 27.1474 279.33 29.8774 278.97 32.8874C278.57 36.2874 279.68 39.6774 282.03 42.1774L282.65 42.8674ZM294.12 22.6274C296.54 22.8374 298.76 23.9874 300.35 25.8074C298.47 27.3174 296.08 28.0574 293.66 27.8374C291.57 27.6574 289.64 26.7774 288.13 25.3774L294.78 25.9574C295.09 25.9874 295.36 25.7574 295.39 25.4474C295.42 25.1374 295.19 24.8674 294.88 24.8374L288.01 24.2474C289.78 23.0174 291.93 22.4374 294.12 22.6274ZM281.17 33.1474C281.44 30.8974 282.51 28.8574 284.16 27.3474L283.35 31.0274C283.28 31.3274 283.47 31.6274 283.78 31.6974C284.08 31.7674 284.38 31.5774 284.45 31.2674L285.17 27.9874C286.17 29.7174 286.61 31.7374 286.37 33.7674C286.08 36.1874 284.88 38.3674 283.01 39.8974C281.54 37.9674 280.88 35.5674 281.17 33.1474Z" fill="#FAFAFF"/>
<path d="M81.9999 616.24L82.7898 615.72C85.6598 613.83 87.5299 610.8 87.9399 607.4C88.1899 605.26 87.8499 603.14 86.9699 601.23C88.6599 602.48 90.6699 603.25 92.8199 603.44C96.2299 603.74 99.5799 602.53 102.02 600.11L102.69 599.45L102.15 598.68C100.18 595.87 97.0898 594.09 93.6798 593.78C90.6598 593.51 87.6899 594.43 85.3599 596.33C85.1699 596.49 84.9899 596.66 84.8099 596.83L82.3899 593.85C78.4099 588.95 73.5599 590.64 73.3499 590.71L74.0999 592.81C74.2499 592.76 77.6999 591.62 80.6499 595.25L83.0699 598.23C82.8799 598.36 82.6899 598.49 82.5199 598.63C80.1899 600.52 78.6799 603.25 78.3199 606.26C77.9199 609.66 79.0299 613.05 81.3799 615.55L81.9999 616.24ZM93.4699 596.01C95.8899 596.22 98.1099 597.37 99.6999 599.19C97.8199 600.7 95.4298 601.44 93.0098 601.22C90.9198 601.04 88.9899 600.16 87.4799 598.76L94.1299 599.34C94.4399 599.37 94.7099 599.14 94.7399 598.83C94.7699 598.52 94.5399 598.25 94.2299 598.22L87.3599 597.63C89.1299 596.4 91.2899 595.81 93.4699 596.01ZM80.5199 606.53C80.7899 604.28 81.8598 602.24 83.5098 600.73L82.6999 604.41C82.6299 604.71 82.8199 605.01 83.1299 605.08C83.4299 605.15 83.7299 604.96 83.7999 604.65L84.5199 601.37C85.5199 603.1 85.9599 605.12 85.7199 607.15C85.4299 609.57 84.2299 611.75 82.3599 613.28C80.8999 611.35 80.2299 608.94 80.5199 606.53Z" fill="#FAFAFF"/>
<path d="M321.41 341.11L321.75 341.99C323.01 345.19 325.59 347.65 328.83 348.74C330.87 349.43 333.02 349.53 335.07 349.07C333.5 350.47 332.33 352.28 331.7 354.33C330.7 357.6 331.2 361.13 333.07 364.02L333.58 364.81L334.45 364.44C337.61 363.09 339.99 360.44 340.99 357.16C341.87 354.26 341.59 351.16 340.21 348.49C340.1 348.27 339.96 348.06 339.84 347.85L343.26 346.09C348.87 343.21 348.23 338.11 348.2 337.89L345.99 338.19C346.01 338.34 346.41 341.96 342.25 344.1L338.83 345.86C338.74 345.65 338.65 345.44 338.55 345.24C337.18 342.57 334.82 340.53 331.95 339.56C328.71 338.46 325.16 338.86 322.23 340.64L321.41 341.11ZM338.85 356.5C338.14 358.83 336.57 360.76 334.46 361.94C333.37 359.79 333.14 357.3 333.85 354.98C334.46 352.98 335.72 351.26 337.4 350.08L335.47 356.46C335.38 356.75 335.55 357.07 335.84 357.16C336.14 357.25 336.45 357.08 336.54 356.79L338.54 350.19C339.36 352.18 339.49 354.41 338.85 356.5ZM331.22 341.66C333.37 342.38 335.14 343.85 336.28 345.78L332.85 344.23C332.57 344.1 332.24 344.23 332.11 344.51C331.98 344.79 332.11 345.12 332.39 345.25L335.45 346.63C333.55 347.25 331.48 347.27 329.55 346.61C327.25 345.83 325.35 344.2 324.24 342.06C326.42 341.04 328.92 340.88 331.22 341.66Z" fill="#FAFAFF"/>
<path d="M188.01 563.76L187.37 563.07C185.02 560.57 181.71 559.24 178.29 559.42C176.14 559.54 174.1 560.24 172.37 561.43C173.31 559.55 173.73 557.43 173.55 555.29C173.26 551.88 171.49 548.79 168.69 546.8L167.92 546.26L167.25 546.93C164.82 549.35 163.59 552.7 163.88 556.11C164.13 559.13 165.55 561.9 167.82 563.88C168.01 564.04 168.21 564.19 168.4 564.34L165.88 567.24C161.73 572 164.23 576.49 164.33 576.68L166.27 575.58C166.2 575.45 164.48 572.24 167.56 568.71L170.08 565.81C170.24 565.97 170.4 566.14 170.57 566.28C172.84 568.25 175.78 569.28 178.8 569.11C182.22 568.93 185.36 567.25 187.43 564.51L188.01 563.76ZM166.11 555.92C165.91 553.5 166.65 551.11 168.17 549.24C169.98 550.83 171.11 553.06 171.32 555.48C171.5 557.57 170.96 559.62 169.84 561.35L169.27 554.7C169.24 554.39 168.97 554.16 168.67 554.19C168.36 554.22 168.13 554.49 168.16 554.79L168.75 561.66C167.23 560.13 166.29 558.11 166.11 555.92ZM178.69 566.88C176.43 567 174.23 566.29 172.47 564.93L176.23 565.1C176.54 565.11 176.8 564.88 176.81 564.57C176.82 564.26 176.59 564 176.28 563.99L172.92 563.84C174.46 562.55 176.37 561.78 178.41 561.67C180.84 561.54 183.2 562.35 185.03 563.93C183.38 565.68 181.12 566.75 178.69 566.88Z" fill="#FAFAFF"/>
<path d="M119.6 695.96L118.96 695.27C116.61 692.77 113.3 691.44 109.88 691.62C107.73 691.74 105.69 692.44 103.96 693.63C104.9 691.75 105.32 689.63 105.14 687.49C104.85 684.08 103.08 680.99 100.28 679L99.5098 678.46L98.8398 679.13C96.4098 681.55 95.1798 684.9 95.4698 688.31C95.7198 691.33 97.1398 694.1 99.4098 696.08C99.5998 696.24 99.7998 696.39 99.9898 696.54L97.4698 699.44C93.3198 704.2 95.8198 708.69 95.9198 708.88L97.8598 707.78C97.7898 707.65 96.0698 704.44 99.1498 700.91L101.67 698.01C101.83 698.17 101.99 698.34 102.16 698.48C104.43 700.45 107.37 701.48 110.39 701.31C113.81 701.13 116.95 699.45 119.02 696.71L119.6 695.96ZM97.6998 688.12C97.4998 685.7 98.2398 683.31 99.7598 681.44C101.57 683.03 102.7 685.26 102.91 687.68C103.09 689.77 102.55 691.82 101.43 693.55L100.86 686.9C100.83 686.59 100.56 686.36 100.26 686.39C99.9498 686.42 99.7198 686.69 99.7498 686.99L100.34 693.86C98.8298 692.33 97.8798 690.31 97.6998 688.12ZM110.28 699.08C108.02 699.2 105.82 698.49 104.06 697.13L107.82 697.3C108.13 697.31 108.39 697.08 108.4 696.77C108.41 696.46 108.18 696.2 107.87 696.19L104.51 696.04C106.05 694.75 107.96 693.98 110 693.87C112.43 693.74 114.79 694.55 116.62 696.13C114.97 697.88 112.71 698.95 110.28 699.08Z" fill="#FAFAFF"/>
<path d="M65.0541 459.037C64.3501 453.639 61.092 449.095 56.3287 446.89L55.4969 446.503L54.7897 447.092C50.754 450.439 48.7625 455.671 49.4665 461.068C50.1585 466.389 53.4942 471.041 58.1918 473.215L59.0236 473.602L59.7308 473.013C63.7052 469.705 65.7461 464.357 65.0541 459.037ZM62.1794 459.407C62.6788 463.223 61.4424 467.04 58.9525 469.724L56.4171 450.25C59.5146 452.211 61.6801 455.591 62.1794 459.407ZM55.0508 450.952L56.6659 463.37L52.3957 460.893C52.3913 460.823 52.3662 460.761 52.3543 460.684C51.8933 457.141 52.9054 453.593 55.0508 450.952ZM52.8349 462.829L56.8113 465.139C56.8404 465.151 56.862 465.157 56.8911 465.169L57.4384 469.415C55.2706 467.821 53.6592 465.491 52.8349 462.829Z" fill="#FAFAFF"/>
<path d="M31.3398 335.2C26.6498 337.96 23.7398 342.73 23.5698 347.97L23.5398 348.89L24.3598 349.31C29.0198 351.71 34.6098 351.5 39.2998 348.75C43.9198 346.04 46.8998 341.14 47.0698 335.98L47.0998 335.06L46.2898 334.64C41.6898 332.27 35.9598 332.48 31.3398 335.2ZM32.8098 337.7C36.1298 335.75 40.1298 335.39 43.5698 336.64L26.6298 346.58C27.2298 342.96 29.4898 339.65 32.8098 337.7ZM27.8098 347.57L38.6098 341.23L37.9998 346.13C37.9398 346.17 37.8898 346.21 37.8298 346.25C34.7398 348.05 31.0798 348.51 27.8098 347.57ZM39.6098 344.96L40.1798 340.4C40.1798 340.37 40.1698 340.34 40.1698 340.31L43.8598 338.14C43.2498 340.77 41.7398 343.17 39.6098 344.96Z" fill="#FAFAFF"/>
<path d="M255.74 251.78C260.33 248.86 263.07 243.98 263.05 238.74V237.82L262.22 237.43C257.48 235.19 251.9 235.6 247.31 238.53C242.79 241.41 239.98 246.41 240 251.57V252.49L240.83 252.88C245.5 255.08 251.21 254.66 255.74 251.78ZM254.18 249.34C250.93 251.41 246.95 251.91 243.46 250.79L260.03 240.25C259.57 243.88 257.43 247.27 254.18 249.34ZM258.82 239.3L248.25 246.02L248.69 241.1C248.75 241.06 248.8 241.02 248.86 240.98C251.88 239.06 255.52 238.48 258.82 239.3ZM247.13 242.32L246.72 246.9C246.72 246.93 246.73 246.96 246.73 246.99L243.12 249.29C243.64 246.64 245.06 244.19 247.13 242.32Z" fill="#FAFAFF"/>
<path d="M162.073 503.562C158.212 499.73 152.847 498.134 147.741 499.31L146.844 499.513L146.646 500.409C145.508 505.526 147.139 510.878 151.009 514.708C154.816 518.481 160.313 520.119 165.341 518.961L166.238 518.758L166.436 517.862C167.551 512.822 165.881 507.345 162.073 503.562ZM160.037 505.622C162.773 508.335 164.139 512.107 163.817 515.758L149.88 501.922C153.522 501.57 157.301 502.909 160.037 505.622ZM149.221 503.312L158.107 512.139L153.212 512.795C153.159 512.745 153.109 512.706 153.057 512.656C150.518 510.134 149.149 506.712 149.221 503.312ZM154.746 514.048L159.303 513.437C159.333 513.43 159.36 513.414 159.389 513.407L162.429 516.421C159.729 516.498 157.026 515.654 154.746 514.048Z" fill="#FAFAFF"/>
<path d="M290.39 446.52C294.98 443.6 297.72 438.72 297.7 433.48V432.56L296.87 432.17C292.13 429.93 286.55 430.34 281.96 433.27C277.44 436.15 274.63 441.15 274.65 446.31V447.23L275.48 447.62C280.15 449.82 285.87 449.4 290.39 446.52ZM288.84 444.07C285.59 446.14 281.61 446.64 278.12 445.52L294.69 434.98C294.23 438.61 292.09 442.01 288.84 444.07ZM293.48 434.03L282.91 440.75L283.35 435.83C283.41 435.79 283.46 435.75 283.52 435.71C286.53 433.79 290.18 433.21 293.48 434.03ZM281.78 437.06L281.37 441.64C281.37 441.67 281.38 441.7 281.38 441.73L277.77 444.03C278.29 441.38 279.72 438.92 281.78 437.06Z" fill="#FAFAFF"/>
<path d="M273.97 710.22C275.42 704.97 274.19 699.52 270.66 695.64L270.04 694.96L269.16 695.23C264.14 696.75 260.27 700.79 258.82 706.03C257.39 711.2 258.65 716.79 262.12 720.61L262.74 721.29L263.62 721.02C268.58 719.53 272.54 715.39 273.97 710.22ZM271.18 709.45C270.15 713.16 267.53 716.2 264.19 717.7L269.44 698.77C271.52 701.78 272.21 705.74 271.18 709.45ZM267.9 698.88L264.56 710.95L261.59 707C261.61 706.93 261.62 706.86 261.63 706.8C262.58 703.36 264.9 700.48 267.9 698.88ZM261.24 708.96L264 712.63C264.02 712.65 264.05 712.67 264.07 712.69L262.93 716.82C261.54 714.51 260.96 711.73 261.24 708.96Z" fill="#FAFAFF"/>
<path d="M96.6398 795.26C101.23 792.34 103.97 787.46 103.95 782.22V781.3L103.12 780.91C98.3798 778.67 92.7998 779.08 88.2098 782.01C83.6898 784.89 80.8798 789.89 80.8998 795.05V795.97L81.7298 796.36C86.3998 798.56 92.1098 798.14 96.6398 795.26ZM95.0798 792.82C91.8298 794.89 87.8498 795.39 84.3598 794.27L100.93 783.73C100.47 787.35 98.3298 790.75 95.0798 792.82ZM99.7198 782.77L89.1498 789.49L89.5898 784.57C89.6498 784.53 89.6998 784.49 89.7598 784.45C92.7798 782.54 96.4198 781.95 99.7198 782.77ZM88.0298 785.8L87.6198 790.38C87.6198 790.41 87.6298 790.44 87.6298 790.47L84.0198 792.77C84.5398 790.12 85.9598 787.67 88.0298 785.8Z" fill="#FAFAFF"/>
<path d="M180.49 95.58C184.95 92.46 187.47 87.47 187.23 82.23L187.19 81.31L186.34 80.96C181.5 78.93 175.95 79.59 171.49 82.7C167.1 85.77 164.51 90.89 164.75 96.05L164.79 96.97L165.64 97.32C170.4 99.32 176.09 98.65 180.49 95.58ZM178.83 93.21C175.67 95.42 171.72 96.09 168.18 95.12L184.28 83.87C183.97 87.52 181.98 91 178.83 93.21ZM183.03 82.97L172.77 90.14L172.99 85.21C173.05 85.17 173.1 85.12 173.15 85.08C176.08 83.04 179.7 82.3 183.03 82.97ZM171.47 86.5L171.26 91.09C171.26 91.12 171.27 91.15 171.27 91.18L167.76 93.63C168.18 90.97 169.49 88.46 171.47 86.5Z" fill="#FAFAFF"/>
<path d="M21.3268 97.6023C22.8949 94.7831 22.9443 91.4702 21.4578 88.7396L21.198 88.2596L20.6542 88.2934C17.5482 88.4663 14.7613 90.2571 13.1906 93.071C11.6467 95.8454 11.5938 99.2458 13.0595 101.934L13.3194 102.414L13.8632 102.38C16.9187 102.212 19.7776 100.379 21.3268 97.6023ZM19.8276 96.7695C18.7163 98.7667 16.7848 100.148 14.6465 100.549L20.3107 90.3785C21.0918 92.4042 20.9335 94.775 19.8276 96.7695ZM19.4111 90.2229L15.8017 96.7045L14.6408 94.0198C14.6624 93.983 14.6761 93.9434 14.6924 93.9091C15.7251 92.0621 17.4626 90.7292 19.4111 90.2229ZM14.1651 95.1015L15.2432 97.6023C15.251 97.6183 15.2641 97.6317 15.2719 97.6477L14.0364 99.8635C13.5706 98.3369 13.618 96.6595 14.1651 95.1015Z" fill="#FAFAFF"/>
<path d="M134.797 -20.1615L131.223 -30L121.782 -25.9079L123.118 -21.9549L123.038 -21.9256L123.185 -21.5304L120.476 -19.876L118.949 -23.3897L113.532 -20.4908L111.777 -24.4658L103.108 -19.8906L105.846 -14.8176L104.392 -14.005L102.278 -17.3651L97.1912 -14.2466L95.1725 -17.4236L87.0023 -12.5044L88.955 -9.47374L84 -6.35527L90.1735 1.89472L87.9493 2.99277L116.578 41L150 24.4853L137.014 -21.2522L134.797 -20.1615ZM129.85 -26.823L132.654 -19.1073L127.552 -16.5818L126.099 -20.5275L126.121 -20.5421L124.741 -24.6049L129.85 -26.823ZM124.021 -19.261L125.401 -15.5203L123.089 -14.3784L123.405 -13.4048C123.412 -13.3828 123.632 -12.6581 123.801 -11.582L121.401 -17.6652L124.021 -19.261ZM117.796 -20.0882L118.839 -17.6945L123.478 -5.91607L123.53 -5.93801C123.104 -4.54714 122.326 -3.20753 120.99 -2.1534L114.456 -18.3021L117.796 -20.0882ZM110.632 -21.179L111.865 -18.3826L118.934 -0.916265L116.482 0.298891L109.046 -13.8806L109.061 -13.8879L108.518 -14.8908L108.511 -14.8981L106.345 -18.9097L110.632 -21.179ZM106.962 -12.7313L114.339 1.33841C114.133 1.43358 113.935 1.50675 113.737 1.57995L105.633 -11.9919L106.962 -12.7313ZM102.983 -11.8016L111.278 2.09238C109.905 2.13631 108.643 1.79957 107.52 1.26518L98.4831 -12.2628L101.515 -14.1222L102.983 -11.8016ZM94.4091 -14.2027L95.8258 -11.97L95.8405 -11.9553L96.4424 -11.0037L96.4645 -11.0183L101.383 -3.64678L97.4701 -1.7142L91.5829 -9.78118L90.3203 -11.7431L94.4091 -14.2027ZM87.4354 -5.72573L90.291 -7.52655L95.3046 -0.652744L92.3317 0.818651L87.4354 -5.72573ZM117.29 37.9986L114.53 34.3385L145.919 18.8267L147.167 23.2335L117.29 37.9986ZM145.265 16.5061L113.084 32.4132L91.5682 3.84928L101.133 -0.879671C103.746 2.312 109.347 6.46993 115.55 3.40271L120.63 0.891838C126.833 -2.17538 126.914 -9.13701 125.945 -13.1412L135.51 -17.8702L145.265 16.5061Z" fill="#FAFAFF"/>
</svg>
