<svg width="40" height="34" viewBox="0 0 40 34" fill="none" xmlns="http://www.w3.org/2000/svg">
<path d="M16.4756 20.9836C16.4559 20.9836 16.4363 20.9845 16.4168 20.9861C16.4012 20.9875 16.386 20.9897 16.3708 20.992C16.3671 20.9925 16.3633 20.9928 16.3596 20.9935C16.3415 20.9965 16.3238 21.0004 16.3064 21.0049C16.3056 21.0051 16.3048 21.0052 16.304 21.0054C16.2861 21.0101 16.2685 21.0154 16.2514 21.0215C16.251 21.0217 16.2504 21.0218 16.2499 21.0219C16.2331 21.0278 16.2169 21.0345 16.201 21.0416C16.1999 21.0421 16.1989 21.0425 16.1978 21.0429C16.1825 21.0499 16.1679 21.0576 16.1534 21.0656C16.1517 21.0665 16.1499 21.0673 16.1482 21.0682C16.1334 21.0767 16.1191 21.0858 16.1053 21.0953C16.1042 21.096 16.103 21.0967 16.1019 21.0975C16.087 21.108 16.0727 21.119 16.0591 21.1306C16.059 21.1307 16.0589 21.1307 16.0589 21.1307C16.0588 21.1308 16.0588 21.1309 16.0587 21.1309C15.9527 21.2214 15.8872 21.3461 15.8872 21.4839V27.0357C15.8872 27.312 16.1506 27.536 16.4757 27.536C16.8008 27.536 17.0642 27.312 17.0642 27.0357V25.1218C17.4786 25.1198 18.0134 25.1177 18.2944 25.1177C19.6552 25.1177 20.7622 24.1904 20.7622 23.0507C20.7622 21.911 19.6552 20.9837 18.2944 20.9837H16.4756V20.9836ZM19.585 23.0506C19.585 23.6287 18.994 24.117 18.2944 24.117C18.0147 24.117 17.4872 24.1192 17.0735 24.1211C17.0712 23.7594 17.0686 23.2933 17.0686 23.0506C17.0686 22.8452 17.0671 22.3607 17.0659 21.9841H18.2943C18.994 21.9841 19.585 22.4725 19.585 23.0506Z" fill="black"/>
<path d="M6.7771 24.2598C6.7771 26.0662 8.50614 27.5359 10.6314 27.5359C12.7567 27.5359 14.4857 26.0662 14.4857 24.2598C14.4857 22.4533 12.7567 20.9836 10.6314 20.9836C8.50614 20.9836 6.7771 22.4533 6.7771 24.2598ZM13.3087 24.2598C13.3087 25.5146 12.1077 26.5354 10.6315 26.5354C9.15525 26.5354 7.95425 25.5146 7.95425 24.2598C7.95425 23.005 9.15525 21.9841 10.6315 21.9841C12.1077 21.9841 13.3087 23.0049 13.3087 24.2598Z" fill="black"/>
<path d="M25.479 22.0094C25.8041 22.0094 26.0676 21.7854 26.0676 21.5092C26.0676 21.2329 25.8041 21.0089 25.479 21.0089H22.752C22.4269 21.0089 22.1635 21.2329 22.1635 21.5092V27.0103C22.1635 27.2866 22.4269 27.5106 22.752 27.5106H25.479C25.8041 27.5106 26.0676 27.2866 26.0676 27.0103C26.0676 26.734 25.8041 26.5101 25.479 26.5101H23.3405V24.76H25.2779C25.603 24.76 25.8664 24.536 25.8664 24.2598C25.8664 23.9835 25.603 23.7595 25.2779 23.7595H23.3405V22.0094H25.479Z" fill="black"/>
<path d="M27.8822 21.0165C27.6364 21.0817 27.4688 21.2752 27.4688 21.4941V27.0356C27.4688 27.3119 27.7323 27.5359 28.0574 27.5359C28.3825 27.5359 28.6459 27.3119 28.6459 27.0356V23.0989L31.9812 27.204C32.163 27.4275 32.4628 27.5235 32.7453 27.4486C33.0353 27.3717 33.2228 27.1361 33.2228 26.8437L33.1618 21.4789C33.1587 21.2042 32.8958 20.9835 32.5735 20.9835C32.5715 20.9835 32.5695 20.9835 32.5677 20.9835C32.2426 20.9861 31.9816 21.2122 31.9848 21.4885L32.0304 25.504L28.5417 21.2098C28.3953 21.0297 28.1284 20.9515 27.8822 21.0165Z" fill="black"/>
<path d="M39.4115 20.2977C39.7366 20.2977 40 20.0738 40 19.7975V16.6939C40 15.5354 38.8911 14.5928 37.5282 14.5928H36.0546L23.5557 4.37329C23.7 4.03345 23.7791 3.66726 23.7791 3.2856C23.7791 1.51437 22.0838 0.0733643 20 0.0733643C17.9162 0.0733643 16.2209 1.51437 16.2209 3.2856C16.2209 3.66986 16.3009 4.03845 16.4471 4.38029L3.95802 14.5928H2.47185C1.10888 14.5928 0 15.5353 0 16.6938V31.8256C0 32.9841 1.10888 33.9266 2.47185 33.9266H5.99207C6.31718 33.9266 6.58061 33.7026 6.58061 33.4264C6.58061 33.1501 6.31718 32.9261 5.99207 32.9261H2.47185C1.75792 32.9261 1.17707 32.4324 1.17707 31.8256V31.2226H38.8229V31.8256C38.8229 32.4324 38.2421 32.9261 37.5282 32.9261H8.73857C8.41347 32.9261 8.15004 33.1501 8.15004 33.4264C8.15004 33.7026 8.41347 33.9266 8.73857 33.9266H37.5282C38.8911 33.9266 40 32.9841 40 31.8256V22.1319C40 21.8557 39.7366 21.6317 39.4115 21.6317C39.0864 21.6317 38.8229 21.8557 38.8229 22.1319V30.2221H1.17707V18.2973H38.8229V19.7974C38.8229 20.0738 39.0864 20.2977 39.4115 20.2977ZM20 1.07387C21.4348 1.07387 22.602 2.06605 22.602 3.2856C22.602 4.50516 21.4348 5.4974 20 5.4974C18.5652 5.4974 17.398 4.50522 17.398 3.2856C17.398 2.06598 18.5652 1.07387 20 1.07387ZM17.0424 5.28175C17.7353 6.022 18.8032 6.49791 20 6.49791C21.1996 6.49791 22.2697 6.01973 22.9625 5.27648L34.3567 14.5928H5.65567L17.0424 5.28175ZM1.17707 17.2968V16.6938C1.17707 16.087 1.75792 15.5933 2.47185 15.5933H37.5282C38.2421 15.5933 38.8229 16.087 38.8229 16.6938V17.2968H1.17707Z" fill="black"/>
</svg>
