<svg width="14" height="18" viewBox="0 0 14 18" fill="none" xmlns="http://www.w3.org/2000/svg">
<path d="M7 0C3.14 0 0 3.14 0 7C0 10.592 5.616 16.954 6.256 17.668C6.446 17.878 6.716 18 7 18C7.284 18 7.554 17.878 7.744 17.668C8.384 16.954 14 10.592 14 7C14 3.14 10.86 0 7 0ZM7 15.474C4.816 12.884 2 8.908 2 7C2 4.244 4.244 2 7 2C9.756 2 12 4.244 12 7C12 8.906 9.184 12.884 7 15.474Z" fill="#FF6C44"/>
<path d="M7 3C5.346 3 4 4.346 4 6C4 7.654 5.346 9 7 9C8.654 9 10 7.654 10 6C10 4.346 8.654 3 7 3ZM7 7C6.448 7 6 6.552 6 6C6 5.448 6.448 5 7 5C7.552 5 8 5.448 8 6C8 6.552 7.552 7 7 7Z" fill="#FF6C44"/>
</svg>
